<svg width="223" height="66" viewBox="0 0 223 66" fill="none" xmlns="http://www.w3.org/2000/svg">
<path d="M8.07187 35.7773C7.62712 38.9714 10.6552 39.7748 11.6677 38.7993C12.6802 37.8239 12.2355 36.3511 10.7025 37.3361C9.16955 38.3212 8.14757 36.1312 8.85728 34.668C9.77517 32.7171 12.5005 31.9138 12.5005 31.9138C12.5005 31.9138 8.50716 32.5832 8.07187 35.7773Z" fill="white"/>
<path d="M13.0207 34.4003C11.6675 33.4726 10.2197 34.668 10.7875 35.6435C10.8685 35.8035 10.9924 35.9372 11.1452 36.0293C11.2979 36.1214 11.4732 36.1681 11.651 36.1641C11.8288 36.1601 12.0019 36.1056 12.1504 36.0067C12.299 35.9079 12.4169 35.7687 12.4908 35.6052C12.5138 35.5174 12.5111 35.4248 12.4829 35.3385C12.4548 35.2523 12.4024 35.1761 12.3322 35.1194C12.262 35.0626 12.1771 35.0277 12.0876 35.0189C11.9982 35.0101 11.9081 35.0277 11.8284 35.0697C11.6202 35.2418 11.8757 35.6052 11.7432 35.6913C11.6581 35.7869 11.0809 35.9112 11.043 35.2036C11.0051 34.4959 12.4908 33.8647 13.0586 35.4713C13.2158 35.9461 13.2462 36.4544 13.1465 36.9448C13.0468 37.4352 12.8206 37.8902 12.4908 38.2638C13.598 37.6422 14.3834 35.3757 13.0207 34.4003ZM10.7402 43.7244C11.3413 44.2492 11.7703 44.9462 11.9704 45.7231C12.1501 47.9417 10.8348 49.4049 11.5351 50.6959C11.6812 50.9879 11.9076 51.2312 12.1871 51.3965C12.4665 51.5618 12.7872 51.6423 13.1108 51.6281C13.4343 51.614 13.7469 51.5059 14.0112 51.3169C14.2755 51.1278 14.4803 50.8657 14.601 50.562C14.6543 50.352 14.6535 50.1316 14.5988 49.9219C14.544 49.7122 14.4372 49.5201 14.2883 49.364C14.1394 49.2078 13.9535 49.0926 13.7482 49.0295C13.5429 48.9664 13.3251 48.9573 13.1153 49.0032C12.3583 49.1754 12.2353 50.6481 13.1153 49.9309C14.0332 49.2232 14.4685 51.2219 13.4655 51.308C11.2228 51.5279 12.188 48.8215 12.3678 46.6985C12.4203 46.0954 12.2934 45.4901 12.0035 44.9602C11.7135 44.4304 11.2736 44 10.7402 43.7244Z" fill="white"/>
<path d="M8.72439 32.9851C7.87943 33.4392 7.17248 34.1169 6.67912 34.9456C6.18577 35.7744 5.92455 36.723 5.92341 37.6902C5.79093 40.3488 7.10626 41.4581 7.37121 43.3325C7.72134 45.8189 8.15663 48.028 9.86939 47.808C11.5348 47.5881 11.5348 44.6522 9.6896 43.409C5.44081 40.3488 5.47866 35.1846 8.72439 32.9851Z" fill="white"/>
<path d="M6.70913 45.1877C7.71218 43.5906 6.14136 41.7736 5.52628 39.9471C4.39075 36.6669 7.14442 33.4728 7.14442 33.4728C4.16364 36.4374 4.25827 39.1533 6.10351 42.5674C6.70913 43.6384 6.87946 45.3216 5.61145 45.3694C4.34343 45.4172 4.25827 44.2983 4.64624 43.9349C5.21401 43.3133 5.3938 44.1549 5.65876 44.2027C6.35901 44.2505 6.09405 43.2272 5.44112 42.9595C4.87335 42.7395 3.89868 42.9977 3.89868 44.3748C3.89868 45.8858 6.09405 46.2396 6.70913 45.1781V45.1877ZM50.5975 35.7775C50.1622 32.5834 46.1689 31.8757 46.1689 31.8757C46.1689 31.8757 48.8942 32.6695 49.8121 34.6204C50.4745 36.0931 49.4998 38.2639 47.9669 37.2885C46.4339 36.3131 45.9986 37.7762 47.0017 38.7517C48.0047 39.7271 51.0423 38.9716 50.5975 35.7871V35.7775Z" fill="white"/>
<path d="M10.04 28.452C6.5766 29.3031 6.09399 33.7787 6.09399 33.7787C6.09399 33.7787 6.40627 32.4494 11.0903 31.78C12.1621 31.6769 13.1891 31.2946 14.0711 30.6706C13.7745 32.7734 13.7015 34.9022 13.8535 37.0206C13.7428 37.1768 13.6417 37.3397 13.5507 37.5083C13.099 38.3969 12.3317 39.0801 11.4026 39.421C12.3904 39.2881 13.3028 38.8153 13.986 38.0821L14.2509 39.5548C13.4941 39.515 12.7366 39.6188 12.0177 39.8609C10.3522 40.3582 7.89192 40.1765 7.40932 38.0056C7.22339 37.1637 7.264 36.2868 7.52693 35.4661C7.78986 34.6454 8.26551 33.9108 8.90444 33.3388C8.90444 33.3388 5.26127 35.9591 7.62697 39.8226C9.33973 42.5768 13.4655 42.6151 14.7808 41.5057C14.9133 41.9552 15.0836 42.3951 15.254 42.8446C14.4056 42.657 13.539 42.5672 12.6706 42.5768C13.6337 42.7887 14.5845 43.0536 15.5189 43.3706C15.6619 43.72 15.8229 44.0616 16.0015 44.3938C15.713 44.0435 15.3512 43.7623 14.9421 43.5704C14.533 43.3786 14.0868 43.2809 13.6358 43.2845C9.30188 42.9689 8.80981 41.6396 7.67428 40.7502C8.53262 42.1104 9.81431 43.1432 11.3175 43.6861C13.0208 44.2599 13.2479 46.0769 13.4655 47.2819C13.571 47.5902 13.7689 47.8576 14.0318 48.0469C14.2947 48.2361 14.6095 48.3379 14.9322 48.3379C15.255 48.3379 15.5698 48.2361 15.8327 48.0469C16.0955 47.8576 16.2935 47.5902 16.399 47.2819C16.6639 46.5797 16.6639 45.8036 16.399 45.1015C16.7788 45.7275 17.1893 46.3339 17.6291 46.9185C17.1465 48.3434 14.4686 49.271 15.5284 50.8298C16.3611 52.0731 18.7268 51.002 19.4744 48.9172C21.0215 50.3638 22.7802 51.5605 24.6884 52.4651L25.5684 45.4936C16.011 38.6177 17.4966 27.3427 19.1148 21.4422C19.2936 21.1637 19.5373 20.9338 19.8245 20.7727C18.2442 26.3194 16.399 37.9865 25.6536 45.0059C25.6796 44.8896 25.6954 44.7711 25.7009 44.652C22.8502 42.9571 20.7709 40.2 19.9097 36.9728C26.1362 37.2916 32.3627 37.2916 38.5892 36.9728C36.6966 36.8772 34.8325 36.7911 32.9304 36.7911C32.9304 36.6572 32.8831 36.5233 32.8831 36.4372L39.2894 33.2431C38.6744 41.85 32.8453 44.6903 32.8453 44.6903C32.8755 44.8089 32.8883 44.9313 32.8831 45.0537C42.185 37.996 40.2546 26.2333 38.6744 20.7249H38.769C38.7974 20.7823 38.892 20.8206 38.892 20.8588C39.0302 20.9718 39.1486 21.1076 39.2421 21.2605C39.2421 21.3083 39.2894 21.3083 39.2894 21.3561C39.2894 21.4039 39.3368 21.3944 39.3368 21.4422C39.3442 21.5643 39.373 21.6841 39.4219 21.796L39.6869 22.5898C39.7815 22.8575 39.7626 22.934 39.8194 22.9914C39.8155 23.0152 39.8168 23.0395 39.8234 23.0627C39.8299 23.0858 39.8415 23.1072 39.8572 23.1253C39.8545 23.1498 39.8574 23.1745 39.8656 23.1977C39.8738 23.2209 39.8871 23.2419 39.9045 23.2592C39.9366 23.3482 39.9682 23.4375 39.9991 23.5269C40.024 23.6163 40.0492 23.7056 40.0748 23.7947C40.0736 23.8176 40.0772 23.8406 40.0853 23.862C40.0935 23.8834 40.106 23.9029 40.1222 23.919C40.1195 23.9435 40.1224 23.9683 40.1306 23.9915C40.1388 24.0147 40.1521 24.0357 40.1695 24.0529C40.1984 24.142 40.2268 24.2312 40.2546 24.3207C40.252 24.3452 40.2549 24.3699 40.263 24.3931C40.2712 24.4163 40.2845 24.4373 40.302 24.4546C40.2981 24.4783 40.2994 24.5027 40.306 24.5258C40.3125 24.549 40.3241 24.5704 40.3398 24.5885C40.3386 24.6523 40.355 24.7152 40.3871 24.7702C40.4035 24.8917 40.4353 25.0107 40.4817 25.124C40.4919 25.2447 40.5173 25.3637 40.5575 25.4778C40.5742 25.5993 40.606 25.7182 40.6521 25.8317V32.2199C40.6332 32.4016 40.6994 32.6024 40.6048 32.7554C40.6112 32.8198 40.5944 32.8843 40.5575 32.9371C40.5644 32.9972 40.5511 33.0578 40.5196 33.1093C40.5261 33.1736 40.5093 33.2382 40.4723 33.291C40.4793 33.351 40.4659 33.4117 40.4344 33.4631C40.4409 33.5275 40.4241 33.592 40.3871 33.6448C40.3913 33.706 40.3746 33.7667 40.3398 33.8169L39.6396 36.6572C39.6059 36.7113 39.5925 36.7757 39.6017 36.8389L38.7217 38.6177L38.3715 39.3253C38.3026 39.4384 38.2425 39.5567 38.1918 39.6792C38.1918 39.727 38.1066 39.8131 38.1066 39.8609C38.0587 39.9074 38.0257 39.9673 38.012 40.033L36.4411 42.1656L36.0437 42.7011C35.9396 42.7968 35.8923 42.9498 35.7409 43.055C35.4192 43.3897 35.0123 43.7435 34.6905 44.1165C34.1511 44.5277 33.6307 44.9389 33.0629 45.3214L33.943 52.2834C35.8514 51.3792 37.6101 50.1824 39.157 48.7355C39.8572 50.8203 42.2797 51.8914 43.1029 50.6481C44.1533 49.0893 41.4848 48.1617 41.0022 46.7368C41.4753 46.1152 41.8822 45.4936 42.2702 44.872C41.9713 45.5815 41.9578 46.3808 42.2324 47.1002C42.3378 47.4085 42.5358 47.6759 42.7987 47.8652C43.0616 48.0544 43.3763 48.1562 43.6991 48.1562C44.0219 48.1562 44.3366 48.0544 44.5995 47.8652C44.8624 47.6759 45.0604 47.4085 45.1658 47.1002C45.3835 45.8952 45.6011 44.0782 47.3139 43.5044C48.817 42.9615 50.0987 41.9287 50.957 40.5685C49.8594 41.4579 49.3294 42.7872 44.9955 43.1028C44.5417 43.1052 44.0941 43.2094 43.685 43.4079C43.2759 43.6063 42.9155 43.8941 42.6298 44.2504L43.1503 43.1984C44.0877 42.8784 45.0417 42.6102 46.008 42.3951C45.1235 42.356 44.2379 42.4429 43.3774 42.6533C43.5477 42.2134 43.7275 41.7735 43.8505 41.324C45.128 42.4334 49.2916 42.4334 51.0044 39.6409C53.3701 35.7296 49.7269 33.1571 49.7269 33.1571C50.375 33.7221 50.8571 34.4561 51.1208 35.279C51.3844 36.1019 51.4194 36.9822 51.222 37.8239C50.7394 39.9948 48.2885 40.2147 46.6136 39.6792C45.8935 39.4424 45.137 39.3387 44.3804 39.3731L44.6454 37.91C45.3115 38.672 46.2303 39.1617 47.2287 39.2871C46.2925 38.9583 45.5213 38.2716 45.0807 37.3744C44.9955 37.1927 44.863 37.0206 44.7779 36.8389C44.974 34.7215 44.9008 32.5875 44.5602 30.4889C45.4566 31.1191 46.5005 31.5015 47.5883 31.5983C52.3197 32.3155 52.5846 33.6065 52.5846 33.6065C52.5846 33.6065 52.102 29.1118 48.6387 28.2703C45.1753 27.4287 43.2449 26.4055 43.4152 24.1868C43.5855 21.9681 45.3078 22.9436 46.008 23.8808C46.5259 24.4852 47.2117 24.9184 47.9763 25.124L49.7742 26.941C49.0971 25.5512 48.2095 24.2767 47.1435 23.1635C47.9778 23.8724 48.9725 24.3618 50.0392 24.5885C50.2155 24.6091 50.3936 24.5701 50.5457 24.4777C50.6979 24.3854 50.8155 24.2447 50.8803 24.0777C50.9451 23.9107 50.9534 23.7268 50.904 23.5545C50.8545 23.3822 50.7501 23.2313 50.6069 23.1253C49.9445 22.8097 49.6417 23.7469 50.0865 23.7947C50.0786 23.746 50.0822 23.6962 50.0969 23.6492C50.1115 23.6021 50.1369 23.5592 50.171 23.5239C50.205 23.4886 50.2468 23.4618 50.2929 23.4457C50.339 23.4296 50.3882 23.4247 50.4366 23.4313C50.8719 23.4313 50.6542 24.1486 49.9067 24.1486C49.197 24.1627 48.5079 23.9067 47.9763 23.4313C47.9763 23.4313 50.0865 23.8808 50.6921 22.1881C51.222 20.8206 49.5566 20.7249 49.6512 21.4422C49.689 21.9203 49.9067 21.5665 50.0297 21.5282C50.4366 21.4804 50.5218 22.2359 49.954 22.7715C49.6443 22.9885 49.2941 23.1394 48.9248 23.215C48.5555 23.2907 48.1748 23.2894 47.8059 23.2114C47.8059 23.2114 49.3768 23.1731 49.4241 21.7004C49.4714 20.2276 48.0236 20.2372 47.8911 20.9066C47.7586 21.5761 48.2885 21.3083 48.2885 21.1266C48.2885 20.9449 48.9509 20.9066 48.9888 21.6621C49.074 22.4176 48.1561 23.6608 46.396 22.5898C46.0078 22.2749 45.5428 22.0714 45.05 22.0007C44.5571 21.9301 44.0546 21.9948 43.595 22.1881C44.1423 20.7738 44.235 19.2213 43.86 17.7508C43.86 17.6647 43.595 17.1292 43.595 17.0814C43.6853 16.9141 43.7582 16.7378 43.8126 16.5554C44.3804 15.0444 44.475 12.8736 43.1976 11.8025C42.2702 10.9992 40.6805 11.0948 40.4344 12.3763C40.2865 12.5253 40.1534 12.6887 40.037 12.864C40.187 12.2832 40.2634 11.6855 40.2641 11.0852C40.794 11.5825 41.6551 10.4349 41.5794 10.0715C41.5794 10.0715 41.4848 10.3776 41.0117 10.3776C40.3966 10.4254 40.3303 10.5497 40.302 10.9514V10.0333C40.3992 9.89407 40.5229 9.77585 40.6659 9.68553C40.8089 9.59522 40.9682 9.53463 41.1347 9.50732C41.059 9.66033 41.3523 9.69858 41.447 9.67945C41.4943 9.67945 41.4943 9.58382 41.4943 9.54557L41.4375 9.50732C41.4395 9.50067 41.4397 9.49359 41.438 9.48684C41.4364 9.48009 41.4329 9.47393 41.4281 9.46901C41.4232 9.46409 41.4171 9.46061 41.4104 9.45893C41.4038 9.45726 41.3968 9.45746 41.3902 9.4595C41.1777 9.41726 40.9573 9.45151 40.7671 9.55632C40.577 9.66112 40.4292 9.82987 40.3493 10.0333C40.3389 9.79672 40.3516 9.55969 40.3871 9.32562C40.6048 9.50732 40.7372 9.37343 40.9076 9.15348C40.9945 9.08784 41.0961 9.0448 41.2033 9.02812C41.3106 9.01144 41.4202 9.02165 41.5227 9.05785C41.4501 8.94778 41.3516 8.85775 41.2359 8.79596C41.1202 8.73417 40.9911 8.70256 40.8603 8.70401C40.7829 8.71221 40.7079 8.73588 40.6397 8.77365C40.5715 8.81141 40.5113 8.8625 40.4628 8.92396C40.6048 8.37886 40.9076 8.05371 41.4753 8.16847C41.4709 8.19725 41.4738 8.22669 41.4836 8.25404C41.4935 8.2814 41.5101 8.30577 41.5319 8.32488C41.5536 8.34398 41.5798 8.35721 41.608 8.3633C41.6362 8.3694 41.6654 8.36817 41.693 8.35974C41.8349 8.2641 41.7876 8.04415 41.6078 8.0824C41.428 7.94852 41.1252 8.0824 40.9076 8.21629C41.3145 7.79551 41.4186 7.83376 41.7876 7.86245C41.7876 8.05371 42.1661 7.97721 42.0053 7.76682C41.9942 7.76704 41.9834 7.76334 41.9747 7.75635C41.9661 7.74936 41.9602 7.73953 41.9579 7.72856C41.8065 7.70944 41.2955 7.51817 40.7751 8.35017C40.8366 8.02456 41.0029 7.72866 41.2482 7.50861C41.2777 7.52143 41.3105 7.52445 41.3418 7.51723C41.373 7.51001 41.4013 7.49293 41.4223 7.46846C41.4434 7.44398 41.4562 7.41338 41.4589 7.38106C41.4616 7.34874 41.4541 7.31639 41.4375 7.28866C41.3429 7.1739 41.2577 7.1739 41.1725 7.28866V7.37473C40.6994 7.91983 40.8224 8.40755 40.6048 8.75183C40.6301 8.52021 40.5838 8.28637 40.4723 8.0824C40.1506 7.73813 39.8667 7.20259 39.9897 6.87744C39.768 7.18816 39.6579 7.56598 39.6774 7.94852C39.7247 8.61794 40.0748 9.0961 40.425 9.0961C40.3754 9.25783 40.3436 9.4246 40.3303 9.59339C40.223 9.37521 40.0596 9.19023 39.8572 9.05785C39.8951 8.81877 39.4503 8.7327 39.5922 9.01003C39.6679 9.07697 39.6774 9.10566 39.772 9.10566C40.0178 9.22972 40.2171 9.43108 40.3398 9.67945C40.3023 9.86825 40.2864 10.0608 40.2925 10.2532C39.9613 9.61251 39.3746 9.85159 39.157 9.58382C39.0434 9.90897 39.7626 10.3776 39.9045 10.9514C39.9897 11.3148 40.16 11.4486 40.3398 11.353C40.3465 11.5772 40.3306 11.8015 40.2925 12.0224C40.1717 11.803 40.0112 11.6083 39.8194 11.4486C39.8477 11.2956 39.3557 11.2574 39.4598 11.4486C39.5071 11.5825 39.6396 11.7164 39.7247 11.5825C39.9537 11.7124 40.1485 11.8961 40.2925 12.1181C40.2513 12.4268 40.1618 12.727 40.0275 13.0074C39.3651 14.3845 38.5419 14.4228 38.3242 14.4228C38.2092 14.419 38.0968 14.4577 38.0079 14.5316C37.9191 14.6055 37.86 14.7096 37.8416 14.8244C38.3543 14.7815 38.8469 14.6035 39.2703 14.3082C39.6937 14.0129 40.0331 13.6105 40.2546 13.1413C40.2263 13.1222 40.7089 13.1987 40.8224 13.1891C40.9413 13.4796 41.1596 13.7172 41.4375 13.8586C41.3832 13.9842 41.2983 14.094 41.1908 14.1776C41.0832 14.2612 40.9565 14.3159 40.8224 14.3367C37.9741 14.1455 37.6051 16.8423 37.3212 19.4052L37.0468 19.3574C39.2421 24.8562 39.8572 29.3031 39.6396 32.765L33.1481 35.4236C33.101 35.0931 33.0283 34.767 32.9304 34.4481L39.3746 27.7921L32.7507 33.9126C32.645 33.6199 32.5119 33.3381 32.3532 33.071L37.5767 23.7947L32.0883 32.6215C31.955 32.3965 31.7962 32.1879 31.6151 31.9999L35.211 20.7727L31.265 31.6939C31.0977 31.5309 30.9061 31.3953 30.6972 31.2923L32.4478 18.8601L30.2998 31.1679C30.106 31.0811 29.8967 31.0355 29.6847 31.034L29.2873 18.5541L29.1169 31.3401C28.905 31.3415 28.6956 31.3871 28.5019 31.474L26.3538 19.1757L28.1044 31.6078C27.8895 31.7003 27.6961 31.8371 27.5367 32.0095L23.5907 21.0883L27.1865 32.3155C27.0055 32.5034 26.8467 32.712 26.7134 32.9371L21.225 24.1007L26.439 33.377C26.3065 33.6448 26.1835 33.9126 26.051 34.2282L19.4649 28.146C19.9137 25.2327 20.708 22.3847 21.8306 19.6634L21.5278 19.7973C21.225 17.2535 20.8843 14.5567 18.0266 14.7384C17.7647 14.6673 17.5406 14.4957 17.402 14.2602C17.5444 14.1971 17.6725 14.1052 17.7783 13.99C17.8841 13.8749 17.9654 13.739 18.0171 13.5908C18.2075 13.5938 18.3976 13.5777 18.5849 13.543C18.7903 14.0146 19.1192 14.4205 19.536 14.7171C19.9529 15.0137 20.442 15.1897 20.9506 15.2261C20.9324 15.113 20.8747 15.0102 20.7878 14.9364C20.701 14.8627 20.5908 14.823 20.4774 14.8244C20.2125 14.8244 19.4176 14.7766 18.7647 13.4091C18.6362 13.1264 18.5471 12.8271 18.4997 12.5197C18.6291 12.2992 18.8114 12.115 19.0296 11.9842C19.1432 12.2041 19.446 11.7355 19.1999 11.7164C19.1476 11.7095 19.0944 11.7186 19.0472 11.7424C19 11.7663 18.9609 11.8039 18.935 11.8503C18.7647 12.0129 18.5092 12.1754 18.4619 12.4241C18.4243 12.2031 18.4085 11.9788 18.4145 11.7547C18.547 11.8025 18.7173 11.659 18.8498 11.353C18.9445 10.7218 19.7015 10.368 19.5974 9.98548C19.4081 10.2437 18.7552 10.0142 18.4619 10.6549C18.4675 10.4624 18.4517 10.27 18.4145 10.0811C18.4707 9.94668 18.5546 9.82593 18.6607 9.72697C18.7667 9.62801 18.8925 9.55311 19.0296 9.50732C19.4649 9.2778 18.8971 9.05785 18.8971 9.4595C18.6954 9.59554 18.5297 9.7794 18.4145 9.99504C18.3672 9.81334 18.3672 9.6412 18.3199 9.50732C19.2378 9.37343 19.2094 7.63293 18.7647 7.28866C18.8782 7.61381 18.5943 8.14934 18.2821 8.48406C18.1611 8.68441 18.1142 8.92153 18.1496 9.15348C17.913 8.79008 18.0644 8.35974 17.5818 7.77638V7.68075C17.4304 7.47036 17.2128 7.70944 17.3169 7.81463C17.3642 7.91027 17.4115 7.94852 17.4966 7.91027C17.742 8.13031 17.9083 8.42621 17.9698 8.75183C17.8675 8.5421 17.7034 8.36964 17.5 8.25829C17.2965 8.14694 17.0639 8.10219 16.8343 8.13022C16.8059 8.13022 16.768 8.11109 16.7491 8.16847C16.5882 8.33105 16.9194 8.52231 16.9762 8.2641C17.3074 8.24498 17.4304 8.17803 17.8468 8.61794C17.7321 8.54208 17.6031 8.49102 17.4679 8.46798C17.3328 8.44494 17.1943 8.45041 17.0614 8.48406C16.9289 8.53187 16.9667 8.70401 17.0614 8.75183C17.156 8.77095 17.2979 8.70401 17.279 8.57013C17.8278 8.43624 18.1496 8.79964 18.2915 9.33518C18.2506 9.26544 18.1924 9.20763 18.1228 9.1674C18.0531 9.12717 17.9743 9.1059 17.8941 9.10566C17.7632 9.10421 17.6341 9.13582 17.5184 9.19762C17.4028 9.25941 17.3042 9.34943 17.2317 9.4595C17.2317 9.4595 17.6291 9.2778 17.8468 9.55513C18.0644 9.77509 18.1969 9.89941 18.3672 9.72727C18.4044 9.9612 18.4203 10.1981 18.4145 10.4349C18.3199 10.0333 17.6102 9.68902 17.3169 9.89941L17.2695 9.94722C17.2412 10.1959 17.6481 10.1289 17.6291 9.89941C17.9625 9.96821 18.259 10.1589 18.4619 10.4349V11.3721C18.424 10.9705 18.3672 10.7888 17.7521 10.7983C17.279 10.7505 17.1844 10.4828 17.1844 10.4828C17.0708 10.9131 17.9982 11.9937 18.5092 11.506C18.5071 12.1058 18.5803 12.7035 18.7268 13.2848C18.6106 13.1094 18.4774 12.946 18.3294 12.7971C18.1023 11.5443 16.4652 11.3626 15.5662 12.2233C14.2509 13.2752 14.3361 15.4556 14.9512 16.9666C15.0458 17.1483 15.0836 17.3204 15.1688 17.5021C15.1688 17.5404 14.9133 18.0759 14.9133 18.1716C14.5508 19.5817 14.6403 21.0717 15.1688 22.4272C14.7224 22.2701 14.244 22.2289 13.7777 22.3074C13.3114 22.3859 12.8722 22.5817 12.5003 22.8767C10.7402 23.9382 9.82233 22.695 9.9075 21.9395C9.99266 21.184 10.6077 21.27 10.6077 21.4039C10.6077 21.5952 11.1755 21.8534 11.0052 21.184C10.8727 20.5145 9.42489 20.5145 9.47221 21.9873C9.51952 23.46 11.0903 23.4983 11.0903 23.4983C10.3438 23.6348 9.57385 23.4737 8.94229 23.0488C8.32721 22.5706 8.42184 21.7673 8.85713 21.8056C8.98961 21.8056 9.1694 22.1594 9.25456 21.7195C9.34919 21.0118 7.72159 21.0501 8.20419 22.475C8.80981 24.1964 10.92 23.7182 10.92 23.7182C10.3745 24.1672 9.69315 24.4136 8.98961 24.4163C8.24205 24.4163 8.07172 23.7086 8.45969 23.7086C8.90444 23.7086 8.80981 24.0625 8.80981 24.0625C9.25456 24.0147 8.94229 23.087 8.28936 23.3931C8.14619 23.4991 8.04175 23.65 7.9923 23.8223C7.94285 23.9945 7.95117 24.1785 8.01597 24.3455C8.08077 24.5125 8.19841 24.6531 8.35056 24.7455C8.5027 24.8379 8.68081 24.8768 8.85713 24.8562C9.92414 24.6308 10.9191 24.1411 11.7527 23.4313C10.6874 24.545 9.79986 25.8194 9.12208 27.2088L10.92 25.3918C11.689 25.1965 12.3776 24.7615 12.8883 24.1486C13.5885 23.2209 15.254 22.2359 15.4811 24.4641C15.4338 26.5489 13.5034 27.62 10.04 28.452ZM36.5263 49.0989C35.3908 49.6249 33.9714 46.6316 35.1258 46.0865C36.2613 45.5701 37.6808 48.5538 36.5263 49.0989ZM38.9393 46.5264C38.1161 47.1767 36.4222 45.0632 37.1887 44.3556C38.012 43.6861 39.7437 45.8857 38.9393 46.5264ZM40.8697 43.9061C40.2641 45.1111 37.9836 43.2367 38.627 42.4429C39.1948 41.7257 41.0874 42.9211 40.8697 43.9061ZM42.2229 41.3814C41.816 42.223 39.6017 41.2953 39.9045 40.3964C40.3114 39.5548 42.5541 40.492 42.2229 41.3814ZM42.9326 38.7611C42.6771 39.5548 40.5291 38.8567 40.8224 38.0439C41.1063 37.2406 43.2354 37.9674 42.9326 38.7611ZM43.2827 36.2269C43.0935 36.9441 41.2104 36.2938 41.4375 35.6052C41.6362 34.888 43.5193 35.567 43.2827 36.2269ZM43.4057 33.7404C43.3017 34.3525 41.551 34.056 41.7403 33.3388C41.8728 32.7076 43.6045 33.0806 43.4057 33.75V33.7404ZM43.0178 29.4848C42.9421 29.9247 41.7498 29.7048 41.8349 29.2553C41.8822 28.8345 43.1503 29.0162 43.0178 29.4848ZM43.2733 31.5696C43.1786 32.1051 41.7971 31.7895 41.9201 31.3018C42.0147 30.7854 43.4152 31.0149 43.2827 31.5696H43.2733ZM37.8511 17.4926V17.4448C37.7623 18.1647 37.9014 18.8945 38.2485 19.5295C38.3471 19.6917 38.4827 19.8277 38.6438 19.9263C38.8049 20.0249 38.987 20.0831 39.1749 20.0962C39.3628 20.1093 39.5511 20.0769 39.7241 20.0016C39.8971 19.9263 40.0498 19.8104 40.1695 19.6634C40.3587 19.3096 40.2168 19.2235 40.2168 19.2235C40.2168 19.2235 40.2168 19.5295 39.7815 19.4817C39.3841 19.4435 39.3841 19.1757 38.9866 19.1757C38.5892 19.1757 38.381 19.1279 38.4189 19.0418C38.4567 18.9557 38.5513 18.994 38.769 19.0418C39.0339 19.1374 39.2989 18.8792 39.4314 18.8219C39.3395 18.7035 39.2189 18.6113 39.0813 18.5541C38.9983 18.5264 38.9087 18.5264 38.8258 18.5541C38.9582 18.4106 38.5703 18.3437 38.4662 18.4202C38.381 18.468 38.381 18.4202 38.381 18.3724C38.504 18.315 38.4189 17.942 38.2485 18.1142C38.2107 18.1524 38.3432 18.1524 38.2958 18.2003C37.8227 18.4776 37.8889 17.1292 37.993 16.8232L38.0309 16.7753C37.9363 16.9762 38.012 18.0186 38.3432 17.6265C38.3665 17.8261 38.4498 18.0137 38.5817 18.1642C38.7136 18.3146 38.888 18.4206 39.0813 18.468C39.1486 18.3454 39.1814 18.2065 39.1759 18.0664C39.171 17.9224 39.125 17.7829 39.0434 17.6647C39.1751 17.7397 39.3222 17.7831 39.4732 17.7914C39.6241 17.7997 39.775 17.7727 39.914 17.7125C40.5575 17.4065 40.0181 16.3354 39.6585 16.8232C39.5355 16.9857 39.8288 17.3683 39.9613 17.0909C39.9613 17.0909 40.1789 17.2631 39.914 17.4448C39.7446 17.5013 39.5628 17.5082 39.3896 17.4648C39.2165 17.4214 39.059 17.3294 38.9353 17.1995C38.8117 17.0695 38.7269 16.9068 38.6908 16.7303C38.6546 16.5537 38.6686 16.3704 38.7311 16.2015C38.9109 15.5799 39.9613 15.4078 40.8413 15.1783C41.3889 14.9653 41.8513 14.5753 42.1567 14.069C41.9323 14.1431 41.69 14.1402 41.4675 14.0606C41.245 13.9811 41.0548 13.8293 40.9265 13.6291C40.8355 13.4889 40.7789 13.3287 40.7615 13.1619C40.7442 12.9951 40.7665 12.8266 40.8267 12.6703C40.8869 12.514 40.9832 12.3746 41.1075 12.2635C41.2319 12.1525 41.3807 12.0731 41.5416 12.032C42.0584 11.9898 42.5724 12.1423 42.9847 12.4601C43.397 12.7779 43.6784 13.2385 43.7748 13.7534C43.9734 14.8302 43.8032 15.9433 43.2922 16.9092C43.1795 16.7833 43.0448 16.6796 42.8948 16.6032C41.9296 16.0294 41.4091 16.5171 41.4091 16.5171C42.8569 16.3832 43.1124 18.0281 43.1124 19.2713C43.1219 20.5719 42.2891 21.7482 42.5446 23.2687C42.0369 22.2878 41.7251 21.2155 41.6267 20.1129C41.6267 20.1129 41.3239 20.199 40.794 20.3328C40.8463 20.2313 40.8906 20.1258 40.9265 20.0173C41.3807 19.3478 41.182 18.8697 40.8319 19.0896C40.8792 18.4298 39.8004 17.8464 39.4787 18.8219C39.3557 19.5391 40.2073 19.5487 40.1789 19.0418C40.5385 19.52 40.0938 20.4189 39.1759 20.3328C38.3337 20.1511 37.5388 19.2713 37.8511 17.4926ZM31.6057 35.0697C31.8291 35.0792 32.051 35.1112 32.268 35.1653C32.0725 35.6897 31.7041 36.13 31.225 36.4122C30.7459 36.6944 30.1853 36.8011 29.6374 36.7146C30.2725 36.3794 30.7689 35.8269 31.0379 35.1558C31.2214 35.0954 31.4127 35.0632 31.6057 35.0601V35.0697ZM29.9024 35.5479C29.9946 35.1404 30.0202 34.7205 29.9781 34.3047C30.2482 33.9423 30.6163 33.6667 31.0379 33.5109C31.1197 34.0962 31.0254 34.6929 30.7672 35.2233C30.509 35.7538 30.0989 36.1934 29.5901 36.4851C29.7131 36.2555 29.8456 35.9591 29.9402 35.7296C29.8929 35.6913 29.8929 35.6435 29.8929 35.5574L29.9024 35.5479ZM28.7668 34.4003C28.7743 33.853 28.9569 33.323 29.2873 32.8893C29.6158 33.4008 29.8016 33.9925 29.8249 34.6018C29.8482 35.2112 29.7082 35.8156 29.4198 36.3512C29.4198 36.399 29.3724 36.399 29.3724 36.4468L29.3251 36.4851V36.5329C29.3272 36.5262 29.3273 36.5192 29.3257 36.5124C29.324 36.5057 29.3206 36.4995 29.3157 36.4946C29.3108 36.4897 29.3047 36.4862 29.2981 36.4845C29.2914 36.4828 29.2844 36.483 29.2778 36.4851L29.24 36.4468C29.24 36.399 29.1926 36.399 29.1926 36.3512C28.8699 35.7548 28.7191 35.0789 28.7574 34.4003H28.7668ZM27.5272 33.5109C27.9445 33.6746 28.3083 33.9528 28.5776 34.3142C28.5105 35.0663 28.6653 35.8217 29.0223 36.4851C28.503 36.2023 28.0815 35.7659 27.8143 35.2344C27.5471 34.7029 27.447 34.1015 27.5272 33.5109ZM26.9594 35.0697C27.1672 35.073 27.3737 35.1019 27.5745 35.1558C27.8447 35.8238 28.3411 36.3729 28.975 36.705C28.4259 36.805 27.8594 36.704 27.3773 36.4201C26.8952 36.1361 26.529 35.6879 26.3443 35.1558C26.546 35.1049 26.7519 35.0729 26.9594 35.0601V35.0697ZM25.5589 36.7528C23.6853 36.7528 21.8495 36.8293 19.9475 36.925C19.5973 35.7088 19.3753 34.4587 19.2851 33.1953L25.5968 36.3512C25.5968 36.4851 25.5589 36.6189 25.5589 36.7528ZM25.9091 34.8019C25.8108 35.1207 25.738 35.4469 25.6914 35.7774L19.2851 33.1571C19.1894 31.4963 19.2624 29.83 19.5028 28.1842L25.9091 34.8019ZM15.2918 33.7404C15.1877 33.0901 16.768 32.6598 16.9573 33.3388C17.0708 34.0082 15.4432 34.3812 15.2918 33.7404ZM16.0394 30.9862C16.9289 30.795 17.0614 31.6174 16.1719 31.78C15.254 31.9712 15.1783 31.1679 16.0394 30.9862ZM16.2097 29.0353C16.9667 28.911 17.156 29.5613 16.3422 29.7048C15.5568 29.8195 15.4621 29.1597 16.2097 29.0353ZM15.4243 36.2173C15.1877 35.5479 17.014 34.888 17.2695 35.6052C17.5156 36.2842 15.6325 36.9441 15.4243 36.2173ZM15.7744 38.7515C15.4716 37.9387 17.6291 37.2214 17.8846 38.0439C18.178 38.8854 16.0299 39.5453 15.7744 38.7515ZM22.0482 47.1863C23.0134 45.2067 24.66 45.9909 23.7989 47.98C22.862 49.95 21.1398 49.1945 22.0482 47.1863ZM21.5183 44.3938C22.3227 45.0441 20.6004 47.1958 19.7677 46.5647C18.9539 45.9526 20.7329 43.6575 21.5183 44.3938ZM20.1178 42.4334C20.714 43.2749 18.547 44.9198 17.9698 44.0782C17.3736 43.2558 19.4838 41.5918 20.1178 42.4334ZM18.793 40.3964C19.2094 41.2475 16.8437 42.2708 16.4747 41.3719C16.0678 40.5112 18.4619 39.507 18.8025 40.3964H18.793ZM15.1404 16.5649C14.7634 15.683 14.6547 14.7076 14.8281 13.7629C14.9342 13.2512 15.2194 12.7953 15.6314 12.479C16.0434 12.1628 16.5545 12.0074 17.0708 12.0416C17.2227 12.094 17.3614 12.1794 17.4771 12.2918C17.5928 12.4043 17.6827 12.541 17.7405 12.6924C17.7982 12.8437 17.8224 13.0061 17.8113 13.1679C17.8003 13.3297 17.7542 13.4871 17.6764 13.6291C17.5423 13.823 17.3521 13.9703 17.1318 14.0508C16.9116 14.1312 16.6722 14.1409 16.4463 14.0785C16.7394 14.5991 17.2105 14.9936 17.7711 15.1879C18.5943 15.4461 19.6542 15.5799 19.8718 16.2015C19.9385 16.3706 19.9556 16.5554 19.9211 16.734C19.8865 16.9126 19.8017 17.0773 19.6769 17.2085C19.5521 17.3397 19.3926 17.4317 19.2174 17.4736C19.0421 17.5155 18.8587 17.5055 18.689 17.4448C18.3767 17.2726 18.6416 17.0909 18.6416 17.0909C18.7552 17.3491 19.0485 17.0622 18.9539 16.8232C18.5754 16.3354 18.0455 17.4161 18.689 17.7125C18.8272 17.7741 18.9777 17.8027 19.1287 17.7961C19.2796 17.7895 19.4271 17.7478 19.5595 17.6743C19.483 17.7907 19.4404 17.9266 19.4365 18.0664C19.4369 18.2048 19.4659 18.3416 19.5217 18.468C19.7488 18.428 19.9521 18.3014 20.0894 18.1142C20.1677 17.9601 20.225 17.796 20.2598 17.6265C20.5815 18.0568 20.6099 16.9953 20.5721 16.7849L20.6099 16.8232C20.7045 17.1579 20.7992 18.3915 20.3071 18.2003C20.3071 18.162 20.4017 18.162 20.3544 18.1142C20.1841 17.942 20.0895 18.315 20.2219 18.382C20.2598 18.4298 20.2219 18.4776 20.1273 18.4298C20.0232 18.3533 19.7015 18.4011 19.7772 18.5541C19.6913 18.5242 19.5981 18.5242 19.5122 18.5541C19.3744 18.6109 19.2536 18.7032 19.1621 18.8219C19.2946 18.8888 19.5595 19.147 19.8245 19.0514C20.0516 19.0036 20.1368 18.9175 20.1746 19.0514C20.2219 19.1374 20.0043 19.1374 19.6068 19.1757C19.2189 19.1757 19.2567 19.4435 18.8214 19.4913C18.424 19.5295 18.3861 19.2235 18.3861 19.2235C18.3861 19.2235 18.2537 19.2713 18.424 19.6634C18.5435 19.8123 18.6967 19.93 18.8707 20.0065C19.0447 20.083 19.2343 20.1161 19.4236 20.1029C19.6129 20.0898 19.7963 20.0309 19.9583 19.9311C20.1203 19.8313 20.2561 19.6935 20.3544 19.5295C20.7009 18.8943 20.84 18.1646 20.7518 17.4448C21.0547 19.2044 20.2882 20.2181 19.3892 20.2468C18.4713 20.3424 18.0266 19.4243 18.3861 18.9557C18.3672 19.4626 19.1526 19.4626 19.0864 18.7358C18.8214 17.6934 17.667 18.3724 17.7238 19.0036C17.1844 18.7645 17.3831 19.5487 17.7238 20.1129C17.4871 20.0659 17.2533 20.0052 17.0235 19.9312C16.8756 21.0846 16.55 22.2076 16.0583 23.2592C16.3138 21.7386 15.4905 20.5337 15.4905 19.2235C15.4905 17.9803 15.7555 16.3354 17.1938 16.4693C17.1938 16.4693 16.6734 15.9816 15.7082 16.5649C15.5655 16.6526 15.4323 16.7552 15.3107 16.871C15.2729 16.871 15.2161 16.7371 15.1404 16.5649Z" fill="white"/>
<path d="M46.8316 35.1176C46.7525 35.0808 46.6649 35.0667 46.5783 35.077C46.4918 35.0873 46.4098 35.1215 46.3413 35.1759C46.2728 35.2303 46.2205 35.3028 46.1901 35.3853C46.1598 35.4678 46.1525 35.5572 46.1693 35.6436C46.2422 35.8076 46.3594 35.9475 46.5074 36.0472C46.6554 36.1469 46.8282 36.2025 47.0061 36.2075C47.1839 36.2125 47.3595 36.1667 47.5128 36.0754C47.666 35.9842 47.7907 35.8511 47.8726 35.6914C48.4403 34.6682 47.002 33.511 45.6393 34.4482C44.2767 35.3854 45.0243 37.6901 46.1693 38.35C45.8297 37.9823 45.5971 37.5271 45.4969 37.0344C45.3967 36.5418 45.4329 36.0308 45.6015 35.5576C46.1692 33.9605 47.6644 34.5821 47.6171 35.2898C47.5697 35.9975 47.0493 35.8636 46.9168 35.7775C46.7843 35.6436 47.0493 35.242 46.8222 35.1081L46.8316 35.1176ZM45.5163 49.8928C46.4342 50.6004 46.2639 49.1373 45.5163 48.9651C45.3065 48.9151 45.0875 48.9207 44.8805 48.9816C44.6735 49.0424 44.4856 49.1564 44.3351 49.3123C44.1846 49.4683 44.0766 49.661 44.0216 49.8716C43.9666 50.0822 43.9664 50.3037 44.0212 50.5144C44.1373 50.824 44.3408 51.0924 44.6064 51.2863C44.8719 51.4802 45.1879 51.5912 45.5152 51.6054C45.8426 51.6197 46.1669 51.5366 46.4479 51.3665C46.729 51.1963 46.9545 50.9466 47.0966 50.6483C47.7968 49.3572 46.4815 47.8941 46.6519 45.6754C46.8519 44.8985 47.2809 44.2015 47.882 43.6767C47.3503 43.9538 46.9124 44.3847 46.6242 44.9144C46.336 45.4442 46.2105 46.0487 46.2639 46.6508C46.4342 48.7834 47.3616 51.442 45.1662 51.2699C44.1537 51.1742 44.5984 49.1851 45.5163 49.8928Z" fill="white"/>
<path d="M51.2602 43.3229C51.5252 41.5059 52.8783 40.3966 52.708 37.6806C52.7126 36.7124 52.4526 35.7616 51.9567 34.9331C51.4609 34.1046 50.7483 33.4305 49.8976 32.9851C53.1528 35.2516 53.1906 40.3966 48.9324 43.409C47.0966 44.6522 47.0966 47.5881 48.762 47.808C50.4653 47.9802 50.9101 45.7615 51.2602 43.3229Z" fill="white"/>
<path d="M51.4775 33.4727C51.4775 33.4727 54.2407 36.6669 53.0957 39.947C52.4806 41.7258 50.9098 43.5428 51.9128 45.1876C52.5752 46.2109 54.7233 45.8571 54.7233 44.3461C54.7233 42.969 53.7581 42.7012 53.1903 42.9212C52.5279 43.1889 52.263 44.2122 52.9632 44.1644C53.2282 44.1644 53.4079 43.275 53.9757 43.8966C54.3258 44.2983 54.288 45.3693 53.0105 45.3215C51.6952 45.2737 51.9128 43.5906 52.5374 42.5291C54.411 39.1533 54.4583 36.4469 51.4775 33.4727ZM17.3169 13.237C17.5535 13.1319 17.4494 12.7302 17.1844 12.8354C16.9195 12.9406 17.0803 13.3327 17.3169 13.237ZM19.7772 11.7261C19.6826 12.0799 19.1621 12.5198 18.9918 13.0553C18.9272 13.4121 19.0055 13.7802 19.2094 14.0786C20.0422 14.1742 20.3166 11.4296 19.7299 11.1427C19.8104 11.3228 19.8271 11.5254 19.7772 11.7165V11.7261ZM41.3902 12.7015C41.1442 12.625 41.0022 13.0171 41.2577 13.1032C41.5227 13.1605 41.6173 12.8354 41.3902 12.7015ZM39.3746 13.983C39.4845 13.8417 39.5613 13.6771 39.599 13.5015C39.6367 13.3258 39.6344 13.1439 39.5923 12.9693C39.3652 12.2999 38.5325 11.6209 38.8069 11.0566C38.2013 11.3531 38.5325 14.0882 39.3746 13.983ZM42.0905 65.5572C41.0587 65.5889 40.0504 65.2425 39.2516 64.5818C39.3232 64.7855 39.4384 64.9708 39.5888 65.1245C39.7393 65.2783 39.9214 65.3966 40.1222 65.4712C40.7474 65.724 41.4173 65.8444 42.0905 65.825C50.096 65.1747 52.9632 61.1104 58.6693 60.0584C58.5368 59.9628 58.3664 59.9245 58.234 59.8384C54.2217 60.5174 48.4021 65.4138 42.0905 65.5572ZM18.5471 65.4712C18.7496 65.3978 18.9336 65.28 19.0857 65.1262C19.2379 64.9724 19.3545 64.7865 19.4271 64.5818C18.6268 65.2532 17.6086 65.6008 16.5693 65.5572C10.305 65.3947 4.44751 60.5557 0.435288 59.8384C0.281934 59.8937 0.135773 59.9676 0 60.0584C4.34342 60.6322 9.42493 65.4233 16.6166 65.825C17.2788 65.863 17.9403 65.7418 18.5471 65.4712ZM31.6625 60.4122C30.9622 60.4122 31.0474 61.5216 31.265 61.9232C32.6655 63.7976 35.8072 61.5981 37.7565 60.8139L36.8292 60.5939C35.457 61.2155 32.3911 62.9943 31.7476 61.4738C31.8768 61.4488 31.9921 61.3762 32.0712 61.2701C32.1503 61.164 32.1876 61.032 32.1758 60.8997C32.164 60.7674 32.104 60.6442 32.0074 60.5541C31.9108 60.4641 31.7845 60.4135 31.653 60.4122H31.6625ZM25.171 61.9615C24.0371 61.6005 22.9354 61.143 21.878 60.5939L20.9601 60.8139C23.7043 61.885 24.7357 63.1473 26.9689 62.4109C27.5746 62.1049 27.9909 60.527 27.0636 60.4027C26.923 60.39 26.7832 60.4343 26.675 60.5257C26.5667 60.6172 26.4989 60.7484 26.4863 60.8904C26.4738 61.0324 26.5176 61.1737 26.6081 61.2831C26.6986 61.3925 26.8284 61.4611 26.9689 61.4738C26.7891 62.191 25.8713 62.0954 25.171 61.9615ZM45.6106 58.5952C46.9149 58.5431 48.2143 58.7848 49.4147 59.3029L49.9824 58.9013C47.6735 57.658 44.248 57.8302 41.9201 58.5952L42.0053 59.169C42.74 58.9641 43.4856 58.8013 44.2385 58.6813C43.2355 59.6567 43.4058 60.8521 44.4183 61.0721C45.0807 61.206 45.9513 60.6322 45.6485 59.8767C45.3835 59.3029 44.4183 59.3029 44.4183 60.0488C44.4183 60.1249 44.4482 60.1979 44.5015 60.2517C44.5547 60.3055 44.6269 60.3357 44.7022 60.3357C44.7775 60.3357 44.8497 60.3055 44.9029 60.2517C44.9562 60.1979 44.9861 60.1249 44.9861 60.0488C44.9861 59.9628 45.1564 60.0967 45.1564 60.2305C45.1197 60.3149 45.0583 60.3858 44.9805 60.4337C44.9026 60.4816 44.8121 60.5041 44.7211 60.4983C43.7181 60.6322 44.0587 58.9491 45.6012 58.5857L45.6106 58.5952ZM16.7491 58.5952C14.0995 57.8589 11.1945 57.6676 8.67737 58.9491L9.24514 59.3507C10.4505 58.8263 11.7568 58.5812 13.0681 58.6335C14.6673 58.9969 15.0364 61.0912 13.5886 60.4505C13.3236 60.2305 13.6832 60.0584 13.6832 60.0967C13.6832 60.1727 13.7131 60.2457 13.7663 60.2995C13.8196 60.3533 13.8918 60.3835 13.9671 60.3835C14.0424 60.3835 14.1146 60.3533 14.1678 60.2995C14.221 60.2457 14.251 60.1727 14.251 60.0967C14.251 59.389 13.4088 59.389 13.0586 59.8767C12.5382 60.5844 13.5886 61.2155 14.1563 61.1677C15.1688 61.0721 15.4811 59.7906 14.4213 58.7674C15.178 58.8658 15.9251 59.0289 16.6545 59.2551L16.7491 58.5952Z" fill="white"/>
<path d="M30.8298 64.094C31.2178 64.1418 31.3976 64.0462 31.3976 64.2279C31.3976 64.4096 31.7477 63.8741 31.303 63.4342C31.4781 63.5646 31.6847 63.645 31.9012 63.6669C32.1176 63.6888 32.3359 63.6513 32.5331 63.5585L32.4953 63.4246C32.4953 63.4246 33.1955 63.4724 33.1577 63.9219C33.1577 63.9219 32.94 63.6063 32.5899 63.9601C32.3249 64.2279 32.6278 64.8017 33.063 64.8017C33.2732 64.8195 33.4824 64.7578 33.6501 64.6287C33.8179 64.4995 33.9323 64.3121 33.9711 64.1026C34.01 63.8932 33.9706 63.6766 33.8605 63.4948C33.7504 63.313 33.5776 63.179 33.3753 63.1186C32.8454 62.9464 31.6247 62.8508 31.2273 62.4492C30.9092 61.9908 30.7136 61.4571 30.6595 60.8999C30.6595 60.8999 30.4419 60.9382 29.9592 61.0338C29.9066 61.3684 29.9214 61.7103 30.0027 62.0389C30.084 62.3676 30.2301 62.6763 30.4324 62.9464C30.1769 62.7085 29.9721 62.4204 29.8306 62.0998C29.689 61.7791 29.6137 61.4327 29.6091 61.0816H29.1265C29.1248 61.4341 29.0497 61.7822 28.9063 62.1035C28.7628 62.4247 28.5541 62.7119 28.2938 62.9464C28.6813 62.3905 28.85 61.7086 28.7669 61.0338C28.5321 61.0185 28.3 60.9735 28.0762 60.8999C28.0453 61.4623 27.8474 62.0021 27.5084 62.4492C26.846 63.2046 24.8304 62.6691 24.7453 63.8741C24.728 64 24.7398 64.1282 24.7798 64.2487C24.8198 64.3692 24.887 64.4787 24.9759 64.5686C25.0648 64.6585 25.1732 64.7263 25.2924 64.7668C25.4117 64.8072 25.5386 64.8192 25.6631 64.8017C26.0984 64.7539 26.4107 64.2279 26.1363 63.9601C25.7956 63.6063 25.5685 63.9123 25.5685 63.9123C25.5307 63.4724 26.2309 63.4342 26.2309 63.4342L26.1931 63.5585C26.392 63.6461 26.61 63.6798 26.8257 63.6563C27.0414 63.6328 27.2473 63.553 27.4232 63.4246C26.9879 63.8645 27.3381 64.4 27.3381 64.2279C27.3381 64.0558 27.5179 64.094 27.9058 64.094C28.1708 64.0462 28.3884 63.7402 28.4736 63.6063C27.6409 65.1555 29.136 64.9356 29.3536 65.7293C29.6091 64.9356 31.0569 65.1555 30.2242 63.6063C30.3472 63.7402 30.5649 64.094 30.8298 64.094ZM30.7825 57.4859C30.6879 57.2563 30.65 57.0842 30.5649 56.8643C30.4702 57.0364 30.3851 57.2564 30.2999 57.4381C30.4702 57.4381 30.65 57.4859 30.773 57.4859H30.7825ZM35.2584 57.1703C35.0408 56.9503 34.7663 57.0364 34.5014 56.9503L34.3784 58.0979C34.596 58.117 34.8988 58.2318 35.0786 58.0597C35.2155 57.9628 35.3104 57.8166 35.3439 57.6512C35.3773 57.4857 35.3467 57.3136 35.2584 57.1703ZM23.7611 57.3902C23.8084 57.3902 23.8084 57.352 23.8558 57.3042C23.8558 57.2564 23.8936 57.2085 23.8558 57.1703C23.8558 56.8547 23.3826 57.0268 23.1934 57.0364C23.1934 57.1703 23.2407 57.352 23.2407 57.4859C23.3826 57.4381 23.657 57.4667 23.7611 57.3902ZM47.7871 62.1431V62.8126L48.2319 62.6309L47.7871 62.1431Z" fill="white"/>
<path d="M54.8081 59.0828C54.9933 58.4837 55.2609 57.9139 55.603 57.3901C53.8051 57.6579 52.4803 58.5951 50.8243 59.5227C47.5691 61.311 43.6799 63.1185 39.9043 62.3152C39.4779 62.1818 39.0658 62.0056 38.6741 61.7892C39.0148 69.4589 50.9568 62.5734 53.9754 61.072C55.2613 60.3759 56.6327 59.8549 58.0539 59.5227C56.9985 59.2192 55.9054 59.071 54.8081 59.0828ZM47.0487 63.5584C47.0061 63.6772 46.9389 63.7854 46.8517 63.876C46.7644 63.9665 46.6591 64.0372 46.5427 64.0833C46.4263 64.1294 46.3015 64.15 46.1766 64.1436C46.0518 64.1372 45.9297 64.1039 45.8185 64.0461L45.9983 63.654C46.1213 63.7688 46.2159 63.7305 46.3863 63.7401C46.4336 63.7401 46.4336 63.6923 46.4809 63.6923C46.5282 63.6923 46.5188 63.654 46.5661 63.654C46.6134 63.6062 46.6134 63.6062 46.6134 63.5584C46.6134 63.4915 46.6134 63.3863 46.5187 63.3863C46.3579 63.3002 46.074 63.3863 45.9131 63.2906C45.833 63.2704 45.7588 63.2312 45.6966 63.1763C45.6345 63.1213 45.5862 63.0522 45.5556 62.9747C45.5251 62.8971 45.5133 62.8133 45.5212 62.7303C45.529 62.6472 45.5564 62.5672 45.6009 62.4969C45.724 62.3434 45.8907 62.2318 46.0785 62.1771C46.2663 62.1224 46.4662 62.1272 46.6512 62.1909L46.4809 62.5829C46.4052 62.5064 46.2349 62.5543 46.1308 62.5447C46.0835 62.5447 46.0835 62.5447 46.0362 62.5829C45.9983 62.5829 45.9983 62.6308 45.951 62.6308C45.8847 62.6881 45.9131 62.7264 45.9037 62.8029C45.9604 63.0229 46.4904 62.8698 46.6134 62.9942C46.8405 62.9942 47.0487 63.348 47.0487 63.568V63.5584ZM48.7993 63.2524L48.4965 62.9368L47.7962 63.2046V63.654L47.3609 63.8262L47.4461 61.7414L47.7489 61.6075L49.2062 63.1185L48.7993 63.2524ZM49.8118 62.8029L48.3167 61.3397L48.7614 61.158L49.6793 62.1335L49.5847 60.8042L49.9821 60.6321L50.0294 62.7168L49.8118 62.8029ZM9.4625 62.5829C9.56392 62.6021 9.66859 62.593 9.76526 62.5565C9.86192 62.52 9.94693 62.4577 10.0111 62.376C10.0754 62.2944 10.1164 62.1967 10.1297 62.0933C10.1431 61.9899 10.1283 61.8848 10.087 61.7892C9.95417 61.5882 9.75159 61.4449 9.51927 61.3875L9.08398 62.4491L9.30163 62.5447C9.36035 62.546 9.41824 62.559 9.47196 62.5829H9.4625Z" fill="white"/>
<path d="M18.5943 64.8494C18.5943 64.8494 20.0421 64.18 20.0421 61.8275C16.3706 63.7688 11.4499 61.4832 8.07171 59.7044C6.36841 58.7864 4.92061 57.6962 3.11321 57.4858C3.4605 58.0019 3.72552 58.5698 3.89863 59.1689C2.80318 59.1329 1.70946 59.2816 0.662354 59.6088C4.80705 60.326 13.7021 67.2307 18.5943 64.8494ZM12.3678 62.057L12.7179 63.5584L13.1059 62.2769L13.5034 62.4108L12.9356 64.2278L12.4151 64.0461L12.0177 62.4969L11.6203 63.7879L11.2323 63.654L11.8001 61.837L12.3678 62.057ZM11.4878 61.7414L10.8254 63.5584L10.4279 63.3863L11.0903 61.5693L11.4878 61.7414ZM9.25456 60.8138C9.63307 61.0242 10.2955 61.1676 10.4847 61.6075C10.555 61.7629 10.5837 61.9343 10.5679 62.1044C10.5521 62.2746 10.4923 62.4375 10.3946 62.577C10.2968 62.7165 10.1646 62.8275 10.011 62.899C9.8574 62.9706 9.68793 63.0001 9.51952 62.9846C9.1666 62.9177 8.82541 62.7985 8.507 62.6308L9.25456 60.8138ZM27.584 12.9692C28.0193 12.9692 27.8016 12.5197 27.8016 12.5197C25.786 10.0333 26.439 8.88568 27.584 8.35014C28.729 7.8146 28.587 7.24081 28.587 7.24081C28.3694 7.91023 27.8868 7.91023 26.7891 8.21625C25.6914 8.52227 25.7387 10.1289 26.7513 11.5921C27.0702 12.0242 27.349 12.4852 27.584 12.9692ZM31.7003 8.26407C30.5648 7.94848 30.0822 7.94848 29.9024 7.28862C29.9024 7.28862 29.7699 7.86241 30.9149 8.39795C32.0599 8.93349 32.7128 10.0811 30.6972 12.5675C30.6972 12.5675 30.4701 13.017 30.9149 13.017C30.8676 13.017 30.9149 12.8353 31.7003 11.6781C32.7507 10.1671 32.8358 8.57009 31.7003 8.26407ZM23.373 9.27777C23.5777 9.26018 23.7766 9.20016 23.9574 9.10143C24.1381 9.00271 24.2967 8.86741 24.4234 8.70398C24.0942 8.95156 23.698 9.09169 23.2879 9.10563C19.7866 9.39252 24.007 13.8394 24.1206 13.8968L24.4329 13.7629C23.8066 13.0968 23.2309 12.3839 22.7106 11.6303C22.5668 11.442 22.4687 11.2221 22.4243 10.9885C22.3798 10.7549 22.3902 10.514 22.4546 10.2852C22.5191 10.0564 22.6357 9.846 22.7952 9.67104C22.9547 9.49607 23.1526 9.36137 23.373 9.27777ZM34.066 13.7151L34.3783 13.8585C34.4918 13.7629 38.6933 9.34471 35.211 9.05781C35.211 9.05781 34.3783 9.01956 34.1133 8.66572C34.24 8.82916 34.3986 8.96446 34.5793 9.06318C34.7601 9.1619 34.959 9.22193 35.1637 9.23951C35.3912 9.31411 35.597 9.44415 35.763 9.61816C35.929 9.79217 36.0501 10.0048 36.1156 10.2373C36.181 10.4698 36.1889 10.715 36.1384 10.9512C36.0879 11.1875 35.9806 11.4076 35.8261 11.5921C35.2875 12.3394 34.7028 13.0517 34.0754 13.7246L34.066 13.7151ZM28.2369 6.70527C28.2369 6.74043 28.2438 6.77525 28.2571 6.80774C28.2704 6.84023 28.2899 6.86975 28.3145 6.89461C28.3391 6.91948 28.3683 6.9392 28.4005 6.95266C28.4326 6.96611 28.4671 6.97304 28.5019 6.97304C28.5367 6.97304 28.5711 6.96611 28.6033 6.95266C28.6354 6.9392 28.6646 6.91948 28.6892 6.89461C28.7138 6.86975 28.7333 6.84023 28.7467 6.80774C28.76 6.77525 28.7668 6.74043 28.7668 6.70527C28.7668 6.67011 28.76 6.63529 28.7467 6.6028C28.7333 6.57031 28.7138 6.54079 28.6892 6.51593C28.6646 6.49106 28.6354 6.47134 28.6033 6.45788C28.5711 6.44443 28.5367 6.4375 28.5019 6.4375C28.4671 6.4375 28.4326 6.44443 28.4005 6.45788C28.3683 6.47134 28.3391 6.49106 28.3145 6.51593C28.2899 6.54079 28.2704 6.57031 28.2571 6.6028C28.2438 6.63529 28.2369 6.67011 28.2369 6.70527ZM29.997 6.97304C30.0673 6.97304 30.1346 6.94483 30.1843 6.89461C30.234 6.84439 30.2619 6.77629 30.2619 6.70527C30.2619 6.63425 30.234 6.56614 30.1843 6.51593C30.1346 6.46571 30.0673 6.4375 29.997 6.4375C29.9267 6.4375 29.8593 6.46571 29.8096 6.51593C29.7599 6.56614 29.732 6.63425 29.732 6.70527C29.732 6.77629 29.7599 6.84439 29.8096 6.89461C29.8593 6.94483 29.9267 6.97304 29.997 6.97304Z" fill="white"/>
<path d="M27.3192 7.32702C27.3192 7.42087 27.3561 7.51087 27.4217 7.57723C27.4874 7.64358 27.5765 7.68086 27.6693 7.68086C27.7622 7.68086 27.8512 7.64358 27.9169 7.57723C27.9826 7.51087 28.0194 7.42087 28.0194 7.32702C28.0194 7.23318 27.9826 7.14318 27.9169 7.07682C27.8512 7.01047 27.7622 6.97319 27.6693 6.97319C27.5765 6.97319 27.4874 7.01047 27.4217 7.07682C27.3561 7.14318 27.3192 7.23318 27.3192 7.32702ZM30.5649 7.32702C30.5649 7.42087 30.6018 7.51087 30.6675 7.57723C30.7331 7.64358 30.8222 7.68086 30.9151 7.68086C31.0079 7.68086 31.097 7.64358 31.1626 7.57723C31.2283 7.51087 31.2652 7.42087 31.2652 7.32702C31.2652 7.23318 31.2283 7.14318 31.1626 7.07682C31.097 7.01047 31.0079 6.97319 30.9151 6.97319C30.8222 6.97319 30.7331 7.01047 30.6675 7.07682C30.6018 7.14318 30.5649 7.23318 30.5649 7.32702ZM26.5243 7.99645C26.6172 7.99645 26.7062 7.95917 26.7719 7.89281C26.8376 7.82645 26.8744 7.73645 26.8744 7.64261C26.8744 7.54877 26.8376 7.45877 26.7719 7.39241C26.7062 7.32605 26.6172 7.28877 26.5243 7.28877C26.0701 7.28877 26.0417 8.0347 26.5243 7.99645ZM31.6626 7.64261C31.6626 7.73645 31.6995 7.82645 31.7652 7.89281C31.8308 7.95917 31.9199 7.99645 32.0127 7.99645C32.1056 7.99645 32.1946 7.95917 32.2603 7.89281C32.326 7.82645 32.3629 7.73645 32.3629 7.64261C32.3629 7.54877 32.326 7.45877 32.2603 7.39241C32.1946 7.32605 32.1056 7.28877 32.0127 7.28877C31.9199 7.28877 31.8308 7.32605 31.7652 7.39241C31.6995 7.45877 31.6626 7.54877 31.6626 7.64261ZM25.209 9.72738C25.3019 9.72738 25.3909 9.6901 25.4566 9.62375C25.5222 9.55739 25.5591 9.46739 25.5591 9.37355C25.5591 9.2797 25.5222 9.1897 25.4566 9.12335C25.3909 9.05699 25.3019 9.01971 25.209 9.01971C25.1161 9.01971 25.0271 9.05699 24.9614 9.12335C24.8958 9.1897 24.8589 9.2797 24.8589 9.37355C24.8589 9.46739 24.8958 9.55739 24.9614 9.62375C25.0271 9.6901 25.1161 9.72738 25.209 9.72738ZM32.9779 9.37355C32.9779 9.46739 33.0148 9.55739 33.0805 9.62375C33.1461 9.6901 33.2352 9.72738 33.3281 9.72738C33.4209 9.72738 33.51 9.6901 33.5756 9.62375C33.6413 9.55739 33.6782 9.46739 33.6782 9.37355C33.6782 9.2797 33.6413 9.1897 33.5756 9.12335C33.51 9.05699 33.4209 9.01971 33.3281 9.01971C33.2352 9.01971 33.1461 9.05699 33.0805 9.12335C33.0148 9.1897 32.9779 9.2797 32.9779 9.37355ZM25.8335 10.4829C25.8335 10.3878 25.7962 10.2965 25.7296 10.2293C25.6631 10.162 25.5728 10.1243 25.4787 10.1243C25.3846 10.1243 25.2943 10.162 25.2278 10.2293C25.1612 10.2965 25.1238 10.3878 25.1238 10.4829C25.1238 10.5767 25.1607 10.6667 25.2264 10.7331C25.292 10.7994 25.3811 10.8367 25.474 10.8367C25.5668 10.8367 25.6559 10.7994 25.7215 10.7331C25.7872 10.6667 25.8241 10.5767 25.8241 10.4829H25.8335ZM32.713 10.4829C32.713 10.5767 32.7499 10.6667 32.8155 10.7331C32.8812 10.7994 32.9702 10.8367 33.0631 10.8367C33.156 10.8367 33.245 10.7994 33.3107 10.7331C33.3763 10.6667 33.4132 10.5767 33.4132 10.4829C33.4132 10.389 33.3763 10.299 33.3107 10.2327C33.245 10.1663 33.156 10.129 33.0631 10.129C32.9702 10.129 32.8812 10.1663 32.8155 10.2327C32.7499 10.299 32.713 10.389 32.713 10.4829ZM25.8714 11.7261C25.9437 11.7132 26.0092 11.675 26.0564 11.6182C26.1036 11.5613 26.1295 11.4895 26.1295 11.4153C26.1295 11.3411 26.1036 11.2692 26.0564 11.2124C26.0092 11.1556 25.9437 11.1174 25.8714 11.1045C25.7991 11.1174 25.7336 11.1556 25.6864 11.2124C25.6391 11.2692 25.6133 11.3411 25.6133 11.4153C25.6133 11.4895 25.6391 11.5613 25.6864 11.6182C25.7336 11.675 25.7991 11.7132 25.8714 11.7261ZM32.3155 11.4201C32.3283 11.4932 32.3661 11.5594 32.4223 11.6071C32.4786 11.6548 32.5497 11.6809 32.6231 11.6809C32.6965 11.6809 32.7676 11.6548 32.8238 11.6071C32.8801 11.5594 32.9179 11.4932 32.9306 11.4201C32.9179 11.347 32.8801 11.2808 32.8238 11.2331C32.7676 11.1854 32.6965 11.1592 32.6231 11.1592C32.5497 11.1592 32.4786 11.1854 32.4223 11.2331C32.3661 11.2808 32.3283 11.347 32.3155 11.4201ZM26.3067 12.472C26.3741 12.4548 26.4339 12.4154 26.4767 12.36C26.5194 12.3045 26.5427 12.2363 26.5427 12.166C26.5427 12.0957 26.5194 12.0274 26.4767 11.972C26.4339 11.9166 26.3741 11.8771 26.3067 11.86C26.2344 11.8728 26.1688 11.9111 26.1216 11.9679C26.0744 12.0247 26.0486 12.0966 26.0486 12.1708C26.0486 12.245 26.0744 12.3168 26.1216 12.3737C26.1688 12.4305 26.2344 12.4687 26.3067 12.4816V12.472ZM32.2304 12.472C32.2978 12.4548 32.3576 12.4154 32.4004 12.36C32.4431 12.3045 32.4664 12.2363 32.4664 12.166C32.4664 12.0957 32.4431 12.0274 32.4004 11.972C32.3576 11.9166 32.2978 11.8771 32.2304 11.86C32.1581 11.8728 32.0925 11.9111 32.0453 11.9679C31.9981 12.0247 31.9723 12.0966 31.9723 12.1708C31.9723 12.245 31.9981 12.3168 32.0453 12.3737C32.0925 12.4305 32.1581 12.4687 32.2304 12.4816V12.472ZM26.8744 13.2371C26.9468 13.2242 27.0123 13.186 27.0595 13.1292C27.1067 13.0723 27.1326 13.0005 27.1326 12.9263C27.1326 12.8521 27.1067 12.7802 27.0595 12.7234C27.0123 12.6665 26.9468 12.6283 26.8744 12.6155C26.8021 12.6283 26.7366 12.6665 26.6894 12.7234C26.6422 12.7802 26.6163 12.8521 26.6163 12.9263C26.6163 13.0005 26.6422 13.0723 26.6894 13.1292C26.7366 13.186 26.8021 13.2242 26.8744 13.2371ZM31.6626 12.5677C31.5903 12.5805 31.5248 12.6187 31.4776 12.6756C31.4304 12.7324 31.4045 12.8042 31.4045 12.8785C31.4045 12.9527 31.4304 13.0245 31.4776 13.0813C31.5248 13.1382 31.5903 13.1764 31.6626 13.1893C31.7349 13.1764 31.8004 13.1382 31.8476 13.0813C31.8949 13.0245 31.9207 12.9527 31.9207 12.8785C31.9207 12.8042 31.8949 12.7324 31.8476 12.6756C31.8004 12.6187 31.7349 12.5805 31.6626 12.5677ZM27.4895 13.8491C27.5618 13.8362 27.6274 13.798 27.6746 13.7412C27.7218 13.6844 27.7476 13.6125 27.7476 13.5383C27.7476 13.4641 27.7218 13.3923 27.6746 13.3354C27.6274 13.2786 27.5618 13.2404 27.4895 13.2275C27.4172 13.2404 27.3517 13.2786 27.3045 13.3354C27.2573 13.3923 27.2314 13.4641 27.2314 13.5383C27.2314 13.6125 27.2573 13.6844 27.3045 13.7412C27.3517 13.798 27.4172 13.8362 27.4895 13.8491ZM30.6974 13.5431C30.6974 13.6243 30.7293 13.7021 30.7861 13.7595C30.8429 13.8169 30.9199 13.8491 31.0002 13.8491C31.0805 13.8491 31.1575 13.8169 31.2143 13.7595C31.2711 13.7021 31.303 13.6243 31.303 13.5431C31.303 13.4619 31.2711 13.3841 31.2143 13.3267C31.1575 13.2693 31.0805 13.2371 31.0002 13.2371C30.9199 13.2371 30.8429 13.2693 30.7861 13.3267C30.7293 13.3841 30.6974 13.4619 30.6974 13.5431ZM24.2533 8.43635C24.3256 8.42349 24.3911 8.38527 24.4383 8.32843C24.4855 8.27159 24.5114 8.19976 24.5114 8.12555C24.5114 8.05134 24.4855 7.97951 24.4383 7.92267C24.3911 7.86583 24.3256 7.82762 24.2533 7.81475C23.8558 7.81475 23.818 8.45548 24.2533 8.43635ZM34.2933 8.43635C34.3656 8.42349 34.4311 8.38527 34.4783 8.32843C34.5255 8.27159 34.5514 8.19976 34.5514 8.12555C34.5514 8.05134 34.5255 7.97951 34.4783 7.92267C34.4311 7.86583 34.3656 7.82762 34.2933 7.81475C34.221 7.82762 34.1554 7.86583 34.1082 7.92267C34.061 7.97951 34.0351 8.05134 34.0351 8.12555C34.0351 8.19976 34.061 8.27159 34.1082 8.32843C34.1554 8.38527 34.221 8.42349 34.2933 8.43635ZM23.3732 8.74238C23.4407 8.72521 23.5005 8.68578 23.5432 8.63034C23.586 8.57491 23.6092 8.50664 23.6092 8.43635C23.6092 8.36607 23.586 8.2978 23.5432 8.24237C23.5005 8.18693 23.4407 8.1475 23.3732 8.13033C23.3009 8.1432 23.2354 8.18141 23.1882 8.23825C23.141 8.29509 23.1151 8.36693 23.1151 8.44114C23.1151 8.51534 23.141 8.58718 23.1882 8.64402C23.2354 8.70086 23.3009 8.73907 23.3732 8.75194V8.74238ZM35.1638 8.74238C35.2313 8.72521 35.2911 8.68578 35.3339 8.63034C35.3766 8.57491 35.3998 8.50664 35.3998 8.43635C35.3998 8.36607 35.3766 8.2978 35.3339 8.24237C35.2911 8.18693 35.2313 8.1475 35.1638 8.13033C34.7759 8.12077 34.738 8.77107 35.1638 8.75194V8.74238ZM22.2377 9.10578C22.3431 9.10578 22.4442 9.06346 22.5187 8.98814C22.5932 8.91281 22.6351 8.81065 22.6351 8.70412C22.6351 8.5976 22.5932 8.49544 22.5187 8.42011C22.4442 8.34479 22.3431 8.30247 22.2377 8.30247C21.7078 8.30247 21.7172 9.13447 22.2377 9.10578ZM36.3088 9.10578C36.4142 9.10578 36.5153 9.06346 36.5899 8.98814C36.6644 8.91281 36.7063 8.81065 36.7063 8.70412C36.7063 8.5976 36.6644 8.49544 36.5899 8.42011C36.5153 8.34479 36.4142 8.30247 36.3088 8.30247C35.7884 8.30247 35.7884 9.13447 36.3088 9.10578ZM21.4428 10.0812C21.5708 10.0812 21.6936 10.0298 21.7841 9.93837C21.8746 9.84691 21.9254 9.72285 21.9254 9.5935C21.9254 9.46415 21.8746 9.34009 21.7841 9.24863C21.6936 9.15716 21.5708 9.10578 21.4428 9.10578C21.3148 9.10578 21.1921 9.15716 21.1016 9.24863C21.0111 9.34009 20.9602 9.46415 20.9602 9.5935C20.9602 9.72285 21.0111 9.84691 21.1016 9.93837C21.1921 10.0298 21.3148 10.0812 21.4428 10.0812ZM37.0564 10.0812C37.1844 10.0812 37.3071 10.0298 37.3977 9.93837C37.4882 9.84691 37.539 9.72285 37.539 9.5935C37.539 9.46415 37.4882 9.34009 37.3977 9.24863C37.3071 9.15716 37.1844 9.10578 37.0564 9.10578C36.9284 9.10578 36.8057 9.15716 36.7151 9.24863C36.6246 9.34009 36.5738 9.46415 36.5738 9.5935C36.5738 9.72285 36.6246 9.84691 36.7151 9.93837C36.8057 10.0298 36.9284 10.0812 37.0564 10.0812ZM21.8781 10.8845C21.897 10.3203 20.9886 10.2725 21.0075 10.8845C21.0075 11.0012 21.0534 11.1131 21.135 11.1956C21.2166 11.2781 21.3274 11.3244 21.4428 11.3244C21.5583 11.3244 21.669 11.2781 21.7506 11.1956C21.8322 11.1131 21.8781 11.0012 21.8781 10.8845ZM37.4917 10.8845C37.5011 10.3203 36.6022 10.2725 36.6116 10.8845C36.6116 11.0025 36.658 11.1156 36.7405 11.199C36.823 11.2824 36.935 11.3292 37.0517 11.3292C37.1684 11.3292 37.2803 11.2824 37.3628 11.199C37.4453 11.1156 37.4917 11.0025 37.4917 10.8845ZM21.8402 12.2138C21.9344 12.2138 22.0246 12.176 22.0912 12.1088C22.1577 12.0415 22.1951 11.9503 22.1951 11.8552C22.1951 11.7601 22.1577 11.6689 22.0912 11.6016C22.0246 11.5344 21.9344 11.4966 21.8402 11.4966C21.7461 11.4966 21.6559 11.5344 21.5893 11.6016C21.5228 11.6689 21.4854 11.7601 21.4854 11.8552C21.4854 11.9503 21.5228 12.0415 21.5893 12.1088C21.6559 12.176 21.7461 12.2138 21.8402 12.2138ZM36.9996 11.86C36.986 11.7773 36.9439 11.7022 36.8806 11.648C36.8174 11.5938 36.7371 11.5641 36.6542 11.5641C36.5713 11.5641 36.4911 11.5938 36.4278 11.648C36.3646 11.7022 36.3224 11.7773 36.3088 11.86C36.3088 11.9538 36.3457 12.0438 36.4114 12.1102C36.477 12.1765 36.5661 12.2138 36.659 12.2138C36.7518 12.2138 36.8409 12.1765 36.9065 12.1102C36.9722 12.0438 37.0091 11.9538 37.0091 11.86H36.9996ZM22.408 12.9693C22.5021 12.9693 22.5924 12.9315 22.6589 12.8643C22.7255 12.797 22.7629 12.7058 22.7629 12.6107C22.7629 12.5156 22.7255 12.4244 22.6589 12.3571C22.5924 12.2898 22.5021 12.2521 22.408 12.2521C21.9727 12.2616 21.9349 12.9884 22.408 12.9693ZM36.129 12.9693C36.2232 12.9693 36.3134 12.9315 36.38 12.8643C36.4465 12.797 36.4839 12.7058 36.4839 12.6107C36.4839 12.5156 36.4465 12.4244 36.38 12.3571C36.3134 12.2898 36.2232 12.2521 36.129 12.2521C35.6938 12.2616 35.6559 12.998 36.129 12.9693ZM23.0609 12.9693C22.9681 12.9693 22.879 13.0066 22.8134 13.0729C22.7477 13.1393 22.7108 13.2293 22.7108 13.3231C22.7108 13.417 22.7477 13.507 22.8134 13.5733C22.879 13.6397 22.9681 13.677 23.0609 13.677C23.1538 13.677 23.2429 13.6397 23.3085 13.5733C23.3742 13.507 23.4111 13.417 23.4111 13.3231C23.4111 13.2293 23.3742 13.1393 23.3085 13.0729C23.2429 13.0066 23.1538 12.9693 23.0609 12.9693ZM35.4761 13.677C35.569 13.677 35.658 13.6397 35.7237 13.5733C35.7893 13.507 35.8262 13.417 35.8262 13.3231C35.8262 13.2293 35.7893 13.1393 35.7237 13.0729C35.658 13.0066 35.569 12.9693 35.4761 12.9693C35.0408 12.9693 35.003 13.7057 35.4761 13.677ZM23.676 14.5664C23.7701 14.5664 23.8604 14.5286 23.9269 14.4613C23.9935 14.3941 24.0309 14.3028 24.0309 14.2077C24.0309 14.1126 23.9935 14.0214 23.9269 13.9542C23.8604 13.8869 23.7701 13.8491 23.676 13.8491C23.5819 13.8491 23.4917 13.8869 23.4251 13.9542C23.3586 14.0214 23.3212 14.1126 23.3212 14.2077C23.3212 14.3028 23.3586 14.3941 23.4251 14.4613C23.4917 14.5286 23.5819 14.5664 23.676 14.5664ZM34.8232 14.5664C34.9173 14.5664 35.0076 14.5286 35.0741 14.4613C35.1407 14.3941 35.178 14.3028 35.178 14.2077C35.178 14.1126 35.1407 14.0214 35.0741 13.9542C35.0076 13.8869 34.9173 13.8491 34.8232 13.8491C34.7291 13.8491 34.6388 13.8869 34.5723 13.9542C34.5057 14.0214 34.4683 14.1126 34.4683 14.2077C34.4683 14.3028 34.5057 14.3941 34.5723 14.4613C34.6388 14.5286 34.7291 14.5664 34.8232 14.5664ZM25.474 8.65631C25.5739 8.63513 25.6636 8.57985 25.7279 8.49975C25.7923 8.41964 25.8274 8.31959 25.8274 8.2164C25.8274 8.11321 25.7923 8.01316 25.7279 7.93305C25.6636 7.85295 25.5739 7.79767 25.474 7.77649C25.374 7.79767 25.2843 7.85295 25.22 7.93305C25.1556 8.01316 25.1205 8.11321 25.1205 8.2164C25.1205 8.31959 25.1556 8.41964 25.22 8.49975C25.2843 8.57985 25.374 8.63513 25.474 8.65631ZM33.0631 8.65631C33.163 8.63513 33.2527 8.57985 33.3171 8.49975C33.3815 8.41964 33.4166 8.31959 33.4166 8.2164C33.4166 8.11321 33.3815 8.01316 33.3171 7.93305C33.2527 7.85295 33.163 7.79767 33.0631 7.77649C32.9632 7.79767 32.8735 7.85295 32.8091 7.93305C32.7447 8.01316 32.7096 8.11321 32.7096 8.2164C32.7096 8.31959 32.7447 8.41964 32.8091 8.49975C32.8735 8.57985 32.9632 8.63513 33.0631 8.65631ZM29.1171 4.13292H29.4199C29.5194 3.68239 29.713 3.25853 29.9877 2.88971C30.3662 2.41155 29.2307 1.13964 29.2875 0.804932C29.2382 1.09494 29.1179 1.36784 28.9373 1.59868C28.6345 2.04815 28.3222 2.48805 28.5872 2.88971C28.8303 3.27185 29.0093 3.69189 29.1171 4.13292ZM29.032 6.30376C29.0698 6.35158 29.2023 6.53328 29.2875 6.61935C29.3253 6.51415 29.6281 6.26551 29.6376 6.17944C29.8647 6.43765 30.3946 6.26551 30.3946 6.26551C30.1202 6.28464 29.524 5.63434 29.4199 4.70671H29.1171C29.0225 5.65347 28.4453 6.34202 28.1519 6.26551C28.1519 6.26551 28.6724 6.3994 28.8995 6.16988C28.9373 6.13163 28.9373 6.2177 29.032 6.30376Z" fill="white"/>
<path d="M28.7196 5.46224C28.8791 5.2235 28.9856 4.95273 29.0319 4.6685H28.8048C28.6723 5.33792 28.1897 5.51006 28.0193 5.33792C27.8869 5.15622 28.114 5.02234 28.114 5.02234C28.0464 5.01406 27.9779 5.0206 27.9131 5.04151C27.8483 5.06242 27.7887 5.09721 27.7384 5.1435C27.6881 5.18979 27.6483 5.2465 27.6217 5.30976C27.595 5.37301 27.5822 5.44134 27.5841 5.51006C27.5841 5.77783 28.2464 6.21774 28.7196 5.46224ZM29.7321 4.6685H29.505C29.5513 4.95273 29.6578 5.2235 29.8173 5.46224C30.3472 6.2273 30.9528 5.77783 30.9528 5.51006C30.9578 5.44135 30.9475 5.37238 30.9225 5.30826C30.8976 5.24415 30.8587 5.18653 30.8087 5.13968C30.7587 5.09284 30.6989 5.05797 30.6337 5.03765C30.5686 5.01734 30.4998 5.0121 30.4324 5.02234C30.4324 5.02234 30.65 5.15622 30.527 5.32836C30.3377 5.51006 29.8646 5.32836 29.7321 4.65894V4.6685ZM26.969 3.59742C27.0432 3.62703 27.1229 3.64021 27.2026 3.63606C27.2823 3.63191 27.3602 3.61054 27.4311 3.57338C27.5019 3.53622 27.5641 3.48414 27.6133 3.42065C27.6626 3.35716 27.6978 3.28374 27.7165 3.20533C27.7165 3.2914 27.4043 3.42529 27.4043 3.15752C27.6881 2.4594 28.7291 3.48267 28.8142 4.13296H28.9845C28.8903 3.72846 28.7094 3.34978 28.4546 3.02363C28.3209 2.81603 28.1284 2.65391 27.9023 2.5584C27.6761 2.46288 27.4267 2.43838 27.1866 2.48809C26.7513 2.62198 26.4012 3.37747 26.969 3.59742ZM29.7321 4.13296C29.8173 3.55917 30.8298 2.43071 31.1326 3.15752C31.1326 3.42529 30.8298 3.2914 30.8298 3.20533C30.8488 3.28257 30.8837 3.35487 30.9324 3.41749C30.981 3.4801 31.0421 3.53162 31.1118 3.56865C31.1815 3.60568 31.2582 3.62739 31.3368 3.63235C31.4154 3.63731 31.4942 3.6254 31.5679 3.59742C32.1357 3.37747 31.795 2.62198 31.3502 2.48809C31.1101 2.43564 30.8597 2.45886 30.633 2.55461C30.4063 2.65037 30.2141 2.81406 30.0822 3.02363C29.8105 3.33876 29.6274 3.72189 29.5523 4.13296H29.7321ZM29.24 4.31466H30.0349V4.21903H28.4168V4.31466C28.6939 4.33844 28.9724 4.33844 29.2495 4.31466H29.24ZM28.3222 4.4868C28.3222 4.51216 28.3321 4.53649 28.3499 4.55442C28.3676 4.57236 28.3917 4.58243 28.4168 4.58243H30.1201C30.1452 4.58243 30.1692 4.57236 30.187 4.55442C30.2047 4.53649 30.2147 4.51216 30.2147 4.4868C30.2147 4.46144 30.2047 4.43711 30.187 4.41918C30.1692 4.40124 30.1452 4.39117 30.1201 4.39117H28.4168C28.3917 4.39117 28.3676 4.40124 28.3499 4.41918C28.3321 4.43711 28.3222 4.46144 28.3222 4.4868ZM23.2785 14.7003C23.2639 14.6056 23.2163 14.5193 23.1443 14.457C23.0723 14.3947 22.9806 14.3604 22.8858 14.3604C22.791 14.3604 22.6993 14.3947 22.6273 14.457C22.5553 14.5193 22.5077 14.6056 22.4931 14.7003C22.4836 14.9585 22.7864 15.2071 23.023 15.0541L24.026 17.7127C25.741 17.3016 27.4893 17.0487 29.2495 16.9572C31.0068 17.0525 32.7519 17.3086 34.4635 17.7222L35.476 15.0541C36.0438 15.3028 36.2236 14.3082 35.6085 14.2986C35.353 14.2891 35.107 14.5951 35.2584 14.8342C34.0282 15.4558 32.798 15.4558 32.4479 14.1265C32.5646 14.1265 32.6765 14.0796 32.7591 13.9962C32.8416 13.9128 32.8879 13.7997 32.8879 13.6818C32.8879 13.5639 32.8416 13.4508 32.7591 13.3674C32.6765 13.284 32.5646 13.2371 32.4479 13.2371C32.3531 13.2438 32.2628 13.2804 32.1897 13.3417C32.1165 13.4031 32.0643 13.486 32.0402 13.5789C32.0162 13.6719 32.0216 13.7701 32.0557 13.8597C32.0898 13.9494 32.1509 14.0259 32.2303 14.0787C31.3124 15.5418 28.994 13.9639 29.77 12.5677C29.854 12.4945 29.9591 12.4504 30.0697 12.4418C30.1804 12.4332 30.2909 12.4605 30.385 12.5199C30.3013 12.4057 30.1829 12.3224 30.0479 12.2827C29.9129 12.2429 29.7687 12.249 29.6375 12.2999C29.7463 12.0407 29.7757 11.7545 29.7217 11.4783C29.6677 11.2021 29.5329 10.9486 29.3347 10.7507C29.1365 10.9486 29.0017 11.2021 28.9477 11.4783C28.8937 11.7545 28.923 12.0407 29.0319 12.2999C28.8994 12.2402 28.7501 12.2306 28.6112 12.2727C28.4723 12.3148 28.3529 12.4059 28.2748 12.5294C28.369 12.4665 28.4808 12.4362 28.5934 12.4431C28.7061 12.45 28.8135 12.4937 28.8994 12.5677C29.3725 13.2849 28.7669 14.2604 27.8869 14.6142C27.6214 14.7069 27.3325 14.7042 27.0687 14.6067C26.805 14.5091 26.5826 14.3226 26.4391 14.0787C26.5185 14.0259 26.5795 13.9494 26.6136 13.8597C26.6477 13.7701 26.6531 13.6719 26.6291 13.5789C26.6051 13.486 26.5528 13.4031 26.4797 13.3417C26.4065 13.2804 26.3162 13.2438 26.2214 13.2371C26.1047 13.2371 25.9928 13.284 25.9103 13.3674C25.8278 13.4508 25.7814 13.5639 25.7814 13.6818C25.7814 13.7997 25.8278 13.9128 25.9103 13.9962C25.9928 14.0796 26.1047 14.1265 26.2214 14.1265C25.8713 15.4558 24.6033 15.4558 23.411 14.8342C23.288 14.7864 23.288 14.7385 23.288 14.7003H23.2785ZM31.795 15.3219C31.9221 15.3392 32.0388 15.4025 32.1232 15.5001C32.2077 15.5977 32.2543 15.723 32.2543 15.8526C32.2543 15.9823 32.2077 16.1076 32.1232 16.2052C32.0388 16.3028 31.9221 16.3661 31.795 16.3834C31.6678 16.3661 31.5512 16.3028 31.4667 16.2052C31.3823 16.1076 31.3357 15.9823 31.3357 15.8526C31.3357 15.723 31.3823 15.5977 31.4667 15.5001C31.5512 15.4025 31.6678 15.3392 31.795 15.3219ZM29.24 14.8724C29.427 14.8724 29.6063 14.9475 29.7385 15.0811C29.8707 15.2147 29.945 15.3959 29.945 15.5849C29.945 15.7738 29.8707 15.955 29.7385 16.0887C29.6063 16.2223 29.427 16.2973 29.24 16.2973C29.0531 16.2973 28.8738 16.2223 28.7415 16.0887C28.6093 15.955 28.5351 15.7738 28.5351 15.5849C28.5351 15.3959 28.6093 15.2147 28.7415 15.0811C28.8738 14.9475 29.0531 14.8724 29.24 14.8724ZM26.5715 15.3219C26.6987 15.3392 26.8153 15.4025 26.8998 15.5001C26.9842 15.5977 27.0308 15.723 27.0308 15.8526C27.0308 15.9823 26.9842 16.1076 26.8998 16.2052C26.8153 16.3028 26.6987 16.3661 26.5715 16.3834C25.8902 16.3738 25.8618 15.2836 26.5715 15.3219ZM33.4983 38.6178C34.8988 38.5796 36.3087 38.4839 37.7092 38.3979C32.1018 37.9925 26.4729 37.9925 20.8655 38.3979C25.0698 38.6922 29.2864 38.7656 33.4983 38.6178ZM29.2874 40.3009C31.4825 40.3263 33.6774 40.2401 35.864 40.0427C31.4896 39.6338 27.0879 39.6178 22.7107 39.9949C24.8964 40.2102 27.0913 40.3155 29.2874 40.3105V40.3009ZM31.6625 41.372C29.2476 41.2462 26.8266 41.3198 24.4235 41.592C27.6304 41.9794 30.8725 41.9634 34.0755 41.5441C33.2806 41.5059 32.4952 41.4198 31.6625 41.372ZM29.2874 42.9212C28.2871 42.9 27.2875 42.9898 26.3066 43.189C28.2759 43.5694 30.2988 43.5694 32.2681 43.189C31.287 42.9912 30.2876 42.9014 29.2874 42.9212ZM28.7196 47.722C28.8994 47.7315 28.8994 47.2534 28.7196 47.2725C28.5493 47.2629 28.5398 47.7028 28.7196 47.722ZM29.8646 47.722C30.0349 47.7315 30.0349 47.2534 29.8646 47.2725C29.6469 47.2725 29.751 47.6837 29.8646 47.722ZM29.2874 47.6646C29.5145 47.6837 29.5145 47.043 29.2874 47.0525C29.0508 47.0525 29.0981 47.6741 29.2874 47.6741V47.6646Z" fill="white"/>
<path d="M2.98053 57.0363C4.86362 57.3232 6.30196 58.356 7.97688 59.2071C10.727 60.9459 13.8344 62.0254 17.0611 62.363C17.7358 62.3496 18.4025 62.2135 19.0294 61.9613C20.4299 61.2919 20.2123 60.6799 20.2974 60.5842C26.3083 59.1183 32.5781 59.1183 38.589 60.5842C38.589 61.3684 39.9138 62.3534 41.8347 62.363C45.0568 62.0178 48.1595 60.9388 50.9095 59.2071C52.575 58.3464 53.9282 57.2658 55.868 57.0363L56.1708 56.7303C52.8399 56.9407 49.2062 60.9859 42.535 62.0091C42.4067 61.9088 42.3014 61.7817 42.2263 61.6364C42.1512 61.4912 42.108 61.3313 42.0997 61.1676C42.535 60.7659 42.0524 60.4025 41.9199 59.8287C41.76 59.0739 41.6713 58.3054 41.6549 57.5336C41.6846 57.3694 41.6526 57.1999 41.565 57.0584C41.4775 56.9169 41.3408 56.8135 41.1818 56.7685C37.6055 55.688 33.8993 55.1088 30.1671 55.0471C30.9241 54.6359 31.6338 53.7179 32.5328 53.5362C32.9654 53.4827 33.3665 53.2801 33.6683 52.9624C33.425 50.269 33.0587 47.5885 32.5706 44.9293C31.5569 44.6421 30.5102 44.491 29.4574 44.4798C28.4188 44.4715 27.3849 44.623 26.3915 44.9293C26.3915 44.9293 25.6912 48.7833 25.2938 52.9624C25.5956 53.2801 25.9967 53.4827 26.4293 53.5362C27.3756 53.7274 28.0285 54.6359 28.795 55.0376C25.0821 55.0792 21.3946 55.6622 17.8466 56.7685C17.6858 56.8115 17.5469 56.9141 17.4574 57.0558C17.368 57.1976 17.3347 57.3681 17.364 57.5336C17.3497 58.3055 17.2609 59.0742 17.099 59.8287C16.9665 60.4025 16.4366 60.7659 16.9287 61.1676C16.886 61.4932 16.728 61.7922 16.4839 62.0091C12.9827 61.4736 9.90728 59.9244 6.79403 58.1839C5.62275 57.402 4.28843 56.9045 2.89536 56.7303C2.76288 56.8163 2.84805 56.9024 2.98999 57.0363H2.98053ZM32.0975 49.051C31.8988 49.4718 31.4824 49.6822 31.2175 50.0647C31.1418 50.189 31.1891 50.3325 31.1796 50.4664C30.9147 50.0838 31.2364 49.6535 31.3973 49.3188C29.8264 49.1658 29.429 51.4801 29.9495 52.6372C30.0042 52.7531 30.092 52.8497 30.2017 52.9145C30.3114 52.9793 30.4378 53.0093 30.5645 53.0006L30.697 52.8667C30.6497 52.905 30.6024 53.0006 30.5645 53.0006C29.7981 53.2588 29.5899 52.1399 29.5047 51.5757C29.3817 49.9691 30.4699 48.2286 32.0975 49.051ZM29.2492 48.9171C29.1694 48.865 29.0787 48.8323 28.9843 48.8215C29.2114 48.8215 29.4574 48.9841 29.6845 48.8693V48.8215C29.3249 48.7641 29.2019 48.6302 28.9843 48.6016C29.2114 48.6016 29.4574 48.7641 29.6845 48.6494C29.4479 48.7067 29.2114 48.4964 28.9843 48.4677C29.1735 48.4677 29.4858 48.6302 29.6466 48.5155C29.6469 48.4742 29.6386 48.4333 29.6223 48.3954C29.606 48.3575 29.5821 48.3235 29.552 48.2955C29.6531 48.3802 29.7307 48.4899 29.7771 48.614C29.8236 48.738 29.8373 48.8722 29.817 49.0032C29.7791 49.051 29.7318 49.051 29.694 49.0988H29.429C29.4763 49.1282 29.5128 49.1724 29.5331 49.2246C29.5533 49.2769 29.5562 49.3344 29.5412 49.3884C29.5262 49.4425 29.4943 49.4901 29.4501 49.5241C29.406 49.5581 29.352 49.5767 29.2965 49.577C28.9748 49.6057 28.918 49.0032 29.2965 49.051C29.2965 48.9554 29.2965 48.9554 29.2492 48.9171ZM27.8866 46.7846C27.9433 46.7846 27.9812 46.9184 27.9812 47.0045C28.2367 47.2723 28.549 47.2723 28.5868 46.6985C28.4733 46.6985 28.4733 46.3446 28.5868 46.3351C28.6814 46.3446 28.7098 46.6315 28.6341 46.6985C28.9086 47.3966 29.3344 46.402 29.1546 46.0291C29.1506 46.017 29.1441 46.0059 29.1354 45.9967C29.1267 45.9874 29.1161 45.9803 29.1043 45.9757C29.0925 45.9711 29.0799 45.9692 29.0673 45.9702C29.0547 45.9712 29.0425 45.9749 29.0316 45.9812C29.0316 45.9334 29.0694 45.7995 29.2019 45.8856C29.1551 45.6581 29.1886 45.4213 29.2965 45.2162C29.4013 45.4225 29.4314 45.6593 29.3817 45.8856C29.4669 45.7995 29.552 45.9334 29.552 45.9812C29.5047 45.9334 29.4195 45.9334 29.4195 46.0291C29.2776 46.4116 29.6845 47.3966 29.9495 46.6985C29.8738 46.6315 29.8927 46.3446 29.9873 46.3351C30.1009 46.3446 30.1009 46.6889 29.9873 46.6985C30.0819 47.2723 30.3469 47.2723 30.6024 47.0045C30.6308 46.4881 30.9241 47.0236 30.697 47.1384H30.6497L30.4321 48.286C30.0716 48.125 29.6885 48.0217 29.2965 47.9799C28.9041 48.0248 28.5209 48.1313 28.161 48.2955L27.9339 47.1384C27.773 47.1958 27.7636 46.8037 27.8866 46.7846ZM28.549 52.2834C28.4037 52.3452 28.2476 52.377 28.09 52.377C27.9324 52.377 27.7764 52.3452 27.6311 52.2834C27.7446 52.1878 28.4354 51.5948 28.5017 51.3079C28.3881 50.5046 28.2745 48.9936 27.1485 49.2232C27.3188 49.577 27.6122 50.0073 27.3661 50.3707C27.4607 49.8543 26.9119 49.5005 26.5807 49.1275C26.5334 49.051 26.4861 49.0032 26.4482 48.9171C27.65 48.2764 28.6247 49.0319 28.7666 50.4186C28.8045 51.4131 28.6625 53.1536 29.7791 53.5744C30.0369 53.64 30.3068 53.64 30.5645 53.5744C30.6743 53.5282 30.7718 53.4565 30.8491 53.3651C30.9264 53.2737 30.9813 53.1653 31.0093 53.0484C31.0328 52.852 30.9999 52.6528 30.9147 52.4746V52.4268C30.6686 52.8667 30.2712 52.1495 30.7443 52.1208C30.9904 52.1399 31.1134 52.446 31.1323 52.6946C31.1418 53.0484 31.1607 53.364 30.6592 53.6222C30.2895 53.759 29.8838 53.759 29.5142 53.6222C29.2879 53.4642 29.0968 53.2601 28.9534 53.0229C28.81 52.7857 28.7173 52.5207 28.6814 52.2451C28.645 52.2777 28.5976 52.2948 28.549 52.2929V52.2834ZM17.7992 57.0363C25.3537 54.7622 33.4002 54.7622 40.9547 57.0363C41.3048 57.1319 41.2196 57.524 41.2196 57.7057C41.1913 57.6399 41.1485 57.5815 41.0943 57.5351C41.0402 57.4887 40.9762 57.4554 40.9074 57.4379C37.1706 56.2966 33.2853 55.7293 29.3817 55.7548C25.4753 55.7346 21.5877 56.3019 17.8466 57.4379C17.7777 57.4554 17.7137 57.4887 17.6596 57.5351C17.6054 57.5815 17.5626 57.6399 17.5343 57.7057C17.5343 57.524 17.4491 57.1319 17.7992 57.0363ZM35.8258 57.7057C35.8027 57.9028 35.7176 58.0872 35.583 58.2318C35.4484 58.3764 35.2715 58.4736 35.0783 58.509C34.7099 58.5231 34.3412 58.491 33.9806 58.4134C34.0279 57.7918 34.1131 57.1319 34.1604 56.5007C34.8985 56.5773 36.0246 56.6633 35.8258 57.7057ZM33.7156 56.5103C33.6778 57.1319 33.5832 57.7918 33.5453 58.4229C33.3655 58.4229 33.1952 58.3751 32.9775 58.3751C32.7547 57.8865 32.5051 57.4108 32.23 56.9502C32.1827 57.3997 32.1827 57.8874 32.1354 58.3273C31.9888 58.3313 31.8424 58.3152 31.7001 58.2795C31.7474 57.6579 31.7947 56.998 31.7947 56.3669C32.0123 56.3669 32.1827 56.4147 32.4003 56.4147C32.6653 56.8641 32.8829 57.3519 33.1479 57.8396L33.2804 56.5007C33.4223 56.4577 33.5737 56.4577 33.7156 56.5007V56.5103ZM31.5676 58.2795H31.0945L30.9525 57.8778H30.2144C30.1671 58.0117 30.0819 58.1456 30.0346 58.2795H29.5615C29.817 57.6579 30.1293 56.998 30.4321 56.3669H30.7822C31.0471 56.9407 31.3026 57.6101 31.5676 58.2795ZM29.5142 57.8396V58.2317H28.3219C28.3219 57.6101 28.284 56.9502 28.284 56.319H28.7193V57.8778C28.9796 57.8429 29.2423 57.8301 29.5047 57.8396H29.5142ZM27.5364 58.2317H27.1012C27.0538 57.7057 27.0538 57.218 27.0065 56.6824C26.8161 56.6766 26.6256 56.6927 26.4388 56.7303C26.4507 56.6109 26.4378 56.4904 26.4009 56.3764C26.9214 56.3286 27.4418 56.3286 27.9717 56.2808V56.6346H27.404C27.4882 57.1628 27.5325 57.6967 27.5364 58.2317ZM25.7858 56.4147C25.9183 56.4147 26.0886 56.3764 26.2211 56.3764C26.24 57.0841 26.6186 58.356 25.5587 58.4134C24.48 58.4803 24.6787 57.2562 24.5462 56.5007C24.6787 56.5007 24.8585 56.4625 24.991 56.4625L25.0761 57.6101C25.0802 57.7282 25.1274 57.8406 25.2086 57.9257C25.2559 57.9735 25.3032 57.9735 25.3411 58.0213C25.3789 58.0213 25.4357 58.0595 25.5114 58.0213C25.5356 58.024 25.5601 58.0211 25.5831 58.0128C25.606 58.0045 25.6268 57.9911 25.6439 57.9735C25.7393 57.9231 25.8158 57.8425 25.8615 57.744C25.8654 57.2997 25.8401 56.8556 25.7858 56.4147ZM23.4201 58.5951C23.2877 58.5951 23.1552 58.6429 22.9754 58.6429L22.7199 56.7303C23.1512 56.6285 23.5978 56.6123 24.0352 56.6824C24.1241 56.7417 24.1948 56.825 24.2391 56.9229C24.2834 57.0207 24.2995 57.1292 24.2857 57.236C24.2719 57.3427 24.2287 57.4433 24.1609 57.5264C24.0932 57.6094 24.0037 57.6716 23.9027 57.7057C24.0731 57.9735 24.2907 58.1839 24.4705 58.4612C24.2907 58.4612 24.1204 58.4995 23.9879 58.4995C23.8081 58.2795 23.6756 58.0213 23.5053 57.7918C23.4266 57.7845 23.3475 57.8012 23.2782 57.8396C23.3612 58.0829 23.4059 58.3378 23.4107 58.5951H23.4201ZM16.9665 60.7659C25.0228 58.1579 33.6838 58.1579 41.7401 60.7659C41.7401 60.8616 41.7401 61.2154 41.2669 61.0337C33.5278 58.5909 25.2356 58.5909 17.4964 61.0337C16.9665 61.2154 16.9287 60.852 16.9665 60.7659Z" fill="white"/>
<path d="M28.5019 51.5854C28.3993 51.8171 28.2513 52.0254 28.0667 52.1975C28.2236 52.22 28.3829 52.22 28.5398 52.1975C28.5135 52.1791 28.4929 52.1535 28.4803 52.1238C28.4677 52.0941 28.4637 52.0614 28.4686 52.0295C28.4736 51.9976 28.4873 51.9677 28.5082 51.9433C28.5292 51.9189 28.5565 51.9009 28.5871 51.8915C28.5493 51.7576 28.5493 51.6237 28.5019 51.4898C28.5493 51.4898 28.5493 51.5376 28.5019 51.5854ZM166.119 44.1262C142.017 43.9731 117.13 44.0114 93.057 44.7573C128.287 45.7136 164.028 45.7232 199.286 44.7573C188.347 44.4131 177.115 44.2696 166.119 44.1357V44.1262ZM93.4923 24.1869C93.4702 23.9259 93.5249 23.6642 93.6494 23.4345C93.774 23.2048 93.963 23.0174 94.1926 22.8959L94.1547 22.762C93.1429 22.8161 92.129 22.8161 91.1172 22.762L91.0699 22.9437C91.3149 23.0737 91.5149 23.276 91.6434 23.5237C91.7719 23.7714 91.8227 24.0528 91.789 24.3304V31.8375C91.789 34.2091 90.4642 35.7297 88.0985 35.7297C85.941 35.7297 84.7109 34.3908 84.7109 32.0192V24.6364C84.7109 23.6992 84.8433 23.2975 85.2786 22.982L85.2313 22.8098C84.0305 22.8767 82.8269 22.8767 81.626 22.8098L81.5787 23.0298C82.1086 23.3454 82.2411 23.9287 82.2411 24.8659V32.2391C82.1843 39.1629 93.8519 38.8473 93.4639 31.7897V24.1869H93.4923ZM104.356 24.1391C105.586 24.1391 105.813 24.4164 105.945 24.732H106.163L106.825 22.7238C102.889 22.7429 99.3119 22.8194 95.347 22.7238L94.6846 24.6364L94.855 24.7798C95.3849 24.3782 95.9621 24.1487 97.5897 24.1487H99.4823V35.4237C99.4823 36.1887 99.2552 36.5426 98.7252 36.7625V37.0303C99.9459 37.0112 101.545 36.9346 102.775 37.0303L102.823 36.8103C102.514 36.7228 102.249 36.5228 102.077 36.2491C101.906 35.9754 101.841 35.6472 101.895 35.328V24.1869H104.356V24.1391ZM107.526 36.8868L107.573 37.0207H116.723C117.15 36.0813 117.663 35.1847 118.256 34.343L118.039 34.1709C117.613 34.6494 117.079 35.0167 116.483 35.2415C115.886 35.4663 115.245 35.5419 114.613 35.4619H110.601V24.1009C110.572 23.8614 110.621 23.6189 110.74 23.4101C110.86 23.2013 111.044 23.0376 111.263 22.9437L111.226 22.7142C110.025 22.7806 108.821 22.7806 107.62 22.7142L107.526 22.9437C108.056 23.1158 108.188 23.4314 108.188 24.2347V35.548C108.181 35.8065 108.118 36.0604 108.004 36.2917C107.889 36.523 107.726 36.7262 107.526 36.8868ZM128.599 36.8008L128.647 37.0207C130.085 36.9633 131.892 36.9538 133.264 37.0207L133.302 36.8008C132.909 36.6747 132.552 36.4539 132.262 36.1573C131.972 35.8608 131.757 35.4974 131.637 35.0985L126.054 22.3604H125.391C125.514 23.4984 119.969 33.7597 119.496 35.0124C119.349 35.4146 119.121 35.7813 118.826 36.0893C118.531 36.3972 118.176 36.6395 117.783 36.8008L117.821 37.0207C119.142 36.954 120.465 36.954 121.786 37.0207L121.824 36.8008C120.669 36.3226 120.972 35.3376 121.474 34.2952L122.922 31.2159H127.407L128.864 34.563C129.243 35.5193 129.527 36.3322 128.599 36.8008ZM123.584 29.8675L125.259 26.2908L126.792 29.8675H123.584ZM143.285 34.2474C144.065 35.1441 144.771 36.1036 145.396 37.1163L145.793 37.0685V24.1391C145.765 23.8812 145.818 23.6209 145.946 23.3957C146.073 23.1706 146.268 22.9922 146.503 22.8863L146.456 22.7046C145.476 22.7709 144.492 22.7709 143.513 22.7046L143.465 22.8863C143.697 22.9813 143.891 23.1508 144.018 23.3687C144.144 23.5865 144.196 23.8405 144.166 24.0913V31.6462C143.058 30.1926 137.854 23.9957 137.258 22.7524C136.205 22.8197 135.15 22.8197 134.097 22.7524L134.05 22.9341C134.319 23.0672 134.542 23.2787 134.69 23.5413C134.838 23.8038 134.905 24.1054 134.883 24.4069V35.6723C134.894 35.9105 134.838 36.1471 134.721 36.354C134.604 36.5609 134.43 36.7292 134.22 36.839L134.267 37.059C135.323 36.9924 136.382 36.9924 137.437 37.059L137.475 36.8773C137.159 36.759 136.891 36.5358 136.715 36.2441C136.54 35.9524 136.468 35.6093 136.51 35.2707V25.8796L143.285 34.2474ZM147.686 36.8868L147.78 37.0685C149.881 36.9729 151.017 37.0685 153.316 37.0685C158.029 37.0685 161.501 34.343 161.501 29.7814C161.501 25.4397 158.029 22.762 153.411 22.762C151.651 22.762 149.777 22.8576 147.733 22.762L147.638 22.982C147.861 23.0985 148.044 23.2806 148.162 23.5043C148.281 23.728 148.329 23.9827 148.301 24.2347V35.5958C148.335 35.8482 148.294 36.1051 148.185 36.3346C148.076 36.5641 147.902 36.7562 147.686 36.8868ZM150.771 24.1965C154.877 23.7853 158.909 24.8659 158.909 29.7814C158.975 35.0985 154.944 36.074 150.723 35.548V24.1869L150.771 24.1965ZM183.938 22.8959L183.89 22.7142C182.991 22.7333 181.033 22.8098 180.058 22.7142L180.02 22.8959C180.588 23.1158 180.682 23.5653 180.682 24.3686V28.6147H174.172V24.1009C174.146 23.8618 174.196 23.6206 174.315 23.4125C174.435 23.2043 174.616 23.0401 174.834 22.9437V22.7142C173.634 22.7806 172.43 22.7806 171.229 22.7142L171.182 22.8959C171.617 23.0776 171.797 23.3454 171.797 24.1869V35.4237C171.797 36.2748 171.579 36.6669 170.917 36.8581L170.964 37.0398C172.282 36.973 173.602 36.973 174.92 37.0398L175.014 36.8103C174.446 36.5426 174.219 36.3704 174.219 35.3376V30.1065H180.73V35.5193C180.768 35.8262 180.689 36.1365 180.507 36.3857C180.326 36.635 180.057 36.8041 179.755 36.8581L179.802 37.0303C181.004 37.0112 182.584 36.9346 183.852 37.0303L183.89 36.8103C183.37 36.5904 183.19 36.2748 183.19 35.5671V24.4929C183.19 23.5557 183.408 23.1063 183.928 22.8863L183.938 22.8959ZM198.491 35.1368L192.908 22.4082H192.246C192.378 23.5366 186.824 33.7979 186.351 35.0603C186.203 35.4621 185.975 35.8286 185.68 36.1365C185.385 36.4443 185.03 36.6868 184.638 36.8486L184.685 37.0685C185.915 36.992 187.382 37.0111 188.641 37.0685L188.688 36.8486C187.524 36.3704 187.836 35.3854 188.328 34.343L189.786 31.2541H194.271L195.719 34.6012C196.097 35.6054 196.4 36.313 195.416 36.8486L195.463 37.0685C196.902 37.0016 198.7 37.0016 200.081 37.0685L200.119 36.8486C199.75 36.6878 199.416 36.4546 199.136 36.1624C198.857 35.8702 198.638 35.5248 198.491 35.1463V35.1368ZM190.486 29.877L192.161 26.2908L193.694 29.8675L190.486 29.877ZM208.172 35.5002H204.169V24.1487C204.138 23.9077 204.186 23.6631 204.305 23.4523C204.425 23.2415 204.61 23.0763 204.831 22.982L204.737 22.7142C203.539 22.7802 202.339 22.7802 201.141 22.7142L201.046 22.9437C201.576 23.1158 201.709 23.4314 201.709 24.2347V35.548C201.719 35.8045 201.668 36.0597 201.561 36.2925C201.454 36.5253 201.294 36.7291 201.094 36.8868L201.141 37.0207H210.282C210.711 36.0805 211.227 35.1839 211.824 34.343L211.607 34.1613C211.191 34.6573 210.658 35.0397 210.058 35.2736C209.458 35.5076 208.809 35.5855 208.172 35.5002ZM222.735 34.2091C222.308 34.6891 221.773 35.0572 221.175 35.2821C220.577 35.507 219.933 35.5818 219.3 35.5002H215.297V24.1487C215.266 23.9077 215.314 23.6631 215.434 23.4523C215.553 23.2415 215.738 23.0763 215.96 22.982L215.912 22.762C214.715 22.829 213.514 22.829 212.316 22.762L212.222 22.982C212.752 23.1637 212.884 23.4792 212.884 24.2826V35.5958C212.894 35.8523 212.844 36.1075 212.737 36.3403C212.63 36.5732 212.47 36.7769 212.269 36.9346L212.307 37.0685H221.458C221.886 36.1283 222.403 35.2317 223 34.3908L222.735 34.2091Z" fill="white"/>
<path d="M77.2163 30.183C82.7804 29.198 82.2315 22.6281 76.2889 22.8098C74.1125 22.7907 71.8887 22.848 69.7407 22.762L69.6934 22.9437C69.9208 23.0685 70.1083 23.2563 70.234 23.4849C70.3596 23.7135 70.4183 23.9736 70.4031 24.2347V35.5479C70.4359 35.8123 70.3905 36.0805 70.2726 36.3188C70.1547 36.5571 69.9696 36.7547 69.7407 36.8868L69.8353 37.0685C71.0961 37.0019 72.3596 37.0019 73.6204 37.0685L73.7056 36.839C73.4162 36.7414 73.1697 36.5445 73.009 36.2825C72.8482 36.0205 72.7833 35.7098 72.8255 35.4045V30.3169H74.4531C76.5633 36.2174 80.5661 40.6451 89.0069 43.055L89.0542 42.749C83.7267 39.8801 78.0585 35.0028 77.2163 30.183ZM72.8634 28.9398V24.1869C75.0777 24.1391 78.5411 23.747 78.4937 26.4247C78.5884 29.1119 74.9925 29.0067 72.8634 28.9302V28.9398ZM109.674 56.1184H105.103V52.3983H103.92V61.3399H105.103V57.2277H109.683V61.3399H110.866V52.3983H109.683L109.674 56.1184ZM121.209 53.5172C120.34 52.632 119.16 52.1317 117.926 52.1263C116.693 52.1209 115.508 52.6109 114.632 53.4885C113.756 54.366 113.261 55.5593 113.256 56.8057C113.251 58.0522 113.735 59.2497 114.604 60.1349C115.034 60.5732 115.545 60.9216 116.108 61.1603C116.671 61.3989 117.275 61.5231 117.886 61.5258C118.497 61.5284 119.102 61.4095 119.667 61.1758C120.233 60.9421 120.747 60.5981 121.18 60.1636C121.614 59.7291 121.959 59.2125 122.195 58.6433C122.431 58.0741 122.554 57.4635 122.557 56.8463C122.559 56.2291 122.442 55.6175 122.21 55.0463C121.979 54.4751 121.639 53.9555 121.209 53.5172ZM120.982 58.2605C120.822 58.6871 120.578 59.0763 120.265 59.4042C119.951 59.7321 119.574 59.9918 119.158 60.1673C118.742 60.3428 118.294 60.4305 117.843 60.4249C117.392 60.4193 116.946 60.3207 116.534 60.1349C114.774 59.389 114.244 57.199 114.831 55.4872C114.99 55.0606 115.234 54.6714 115.548 54.3435C115.861 54.0156 116.238 53.7559 116.654 53.5804C117.071 53.4049 117.519 53.3172 117.97 53.3228C118.421 53.3284 118.866 53.427 119.278 53.6128C120.084 54.0342 120.705 54.7441 121.02 55.6036C121.335 56.4632 121.321 57.4106 120.982 58.2605ZM123.981 53.5172H126.792V61.3494H127.984V53.5172H130.795V52.4078H123.981V53.5172ZM134.05 57.3233H138.185V56.2044H134.05V53.5267H138.497V52.3983H132.82V61.3399H138.705V60.1923H134.05V57.3233ZM142.368 52.3983H141.175V61.3399H146.408V60.1923H142.368V52.3983ZM160.006 56.5583H158.644L157.536 58.3944L155.833 56.5583C156.309 56.3743 156.729 56.0673 157.052 55.6679C157.374 55.2685 157.587 54.7907 157.669 54.2822C157.697 53.8565 157.575 53.4344 157.326 53.09C157.077 52.7455 156.716 52.5006 156.306 52.3983C153.515 51.6045 151.925 54.4544 154.149 56.4148C149.162 58.9969 154.489 64.0654 157.669 60.1827L158.776 61.3877H160.356L158.369 59.2838L160.006 56.5583ZM154.546 53.565C155.161 53.0294 156.495 53.2972 156.439 54.2727C156.439 55.0951 155.71 55.4967 155.076 55.841C154.48 55.3246 153.751 54.2344 154.546 53.565ZM156.533 59.7811C154.168 61.9806 151.651 58.5187 154.811 57.1034L156.921 59.3316C156.8 59.4913 156.667 59.6416 156.524 59.7811H156.533ZM170.519 56.7878C169.639 56.2809 168.381 56.2714 167.614 55.535C167.407 55.2888 167.297 54.9739 167.306 54.6508C167.315 54.3278 167.441 54.0194 167.662 53.7849C167.868 53.6023 168.11 53.4648 168.372 53.3813C168.634 53.2977 168.91 53.2699 169.182 53.2996C169.455 53.3292 169.719 53.4157 169.958 53.5535C170.196 53.6914 170.403 53.8776 170.567 54.1005L171.532 53.2111C169.989 51.3559 166.072 52.0349 166.034 54.6839C165.911 57.2659 168.494 57.1321 170.037 58.1744C170.152 58.3107 170.237 58.4701 170.286 58.6421C170.335 58.8141 170.348 58.9948 170.323 59.1721C170.298 59.3493 170.236 59.5192 170.141 59.6704C170.046 59.8215 169.92 59.9506 169.772 60.0488C169.282 60.3628 168.693 60.4781 168.123 60.3717C167.552 60.2653 167.043 59.945 166.696 59.475L165.722 60.3166C167.046 62.0571 170.292 62.038 171.305 60.001C171.556 59.4552 171.615 58.839 171.472 58.2545C171.329 57.6701 170.993 57.1526 170.519 56.7878ZM179.49 53.2111C178.478 51.9871 175.554 52.513 174.125 52.4078V61.3494H175.307V57.4094C176.416 57.4915 177.531 57.4175 178.619 57.1894C180.228 56.6348 180.446 54.4257 179.49 53.2111ZM178.657 55.6211C178.033 56.673 176.32 56.2618 175.307 56.3383V53.4694C176.131 53.5363 177.484 53.2781 178.213 53.7467C178.504 53.9475 178.711 54.2507 178.793 54.5971C178.875 54.9436 178.827 55.3086 178.657 55.6211ZM184.108 52.3983L180.238 61.3399H181.648L182.528 59.1499H186.701L187.581 61.3494H188.991L185.253 52.3983H184.108ZM182.925 58.0788L184.59 53.9666H184.638L186.265 58.0788H182.925Z" fill="white"/>
</svg>